<svg width="50" height="50" viewBox="0 0 50 50" fill="none" xmlns="http://www.w3.org/2000/svg">
<path d="M11.059 41.2631L16.8766 36.1157L32.4835 34.1865L40.5231 41.3418C40.9923 41.7594 41.2923 42.3344 41.3664 42.9581C41.5478 44.4864 40.354 45.8303 38.815 45.8303H12.7894C11.3472 45.8303 10.178 44.6611 10.178 43.2189C10.178 42.4709 10.4987 41.7588 11.059 41.2631Z" fill="url(#paint0_linear_371_623)"/>
<path d="M11.059 41.2631L16.8766 36.1157L32.4835 34.1865L40.5231 41.3418C40.9923 41.7594 41.2923 42.3344 41.3664 42.9581C41.5478 44.4864 40.354 45.8303 38.815 45.8303H12.7894C11.3472 45.8303 10.178 44.6611 10.178 43.2189C10.178 42.4709 10.4987 41.7588 11.059 41.2631Z" fill="url(#paint1_linear_371_623)"/>
<path d="M11.059 41.2631L16.8766 36.1157L32.4835 34.1865L40.5231 41.3418C40.9923 41.7594 41.2923 42.3344 41.3664 42.9581C41.5478 44.4864 40.354 45.8303 38.815 45.8303H12.7894C11.3472 45.8303 10.178 44.6611 10.178 43.2189C10.178 42.4709 10.4987 41.7588 11.059 41.2631Z" fill="url(#paint2_radial_371_623)"/>
<path d="M11.059 41.2631L16.8766 36.1157L32.4835 34.1865L40.5231 41.3418C40.9923 41.7594 41.2923 42.3344 41.3664 42.9581C41.5478 44.4864 40.354 45.8303 38.815 45.8303H12.7894C11.3472 45.8303 10.178 44.6611 10.178 43.2189C10.178 42.4709 10.4987 41.7588 11.059 41.2631Z" fill="url(#paint3_linear_371_623)"/>
<path d="M11.059 41.2631L16.8766 36.1157L32.4835 34.1865L40.5231 41.3418C40.9923 41.7594 41.2923 42.3344 41.3664 42.9581C41.5478 44.4864 40.354 45.8303 38.815 45.8303H12.7894C11.3472 45.8303 10.178 44.6611 10.178 43.2189C10.178 42.4709 10.4987 41.7588 11.059 41.2631Z" fill="url(#paint4_linear_371_623)"/>
<path d="M11.059 41.2631L16.8766 36.1157L32.4835 34.1865L40.5231 41.3418C40.9923 41.7594 41.2923 42.3344 41.3664 42.9581C41.5478 44.4864 40.354 45.8303 38.815 45.8303H12.7894C11.3472 45.8303 10.178 44.6611 10.178 43.2189C10.178 42.4709 10.4987 41.7588 11.059 41.2631Z" fill="url(#paint5_linear_371_623)"/>
<path d="M11.059 41.2631L16.8766 36.1157L32.4835 34.1865L40.5231 41.3418C40.9923 41.7594 41.2923 42.3344 41.3664 42.9581C41.5478 44.4864 40.354 45.8303 38.815 45.8303H12.7894C11.3472 45.8303 10.178 44.6611 10.178 43.2189C10.178 42.4709 10.4987 41.7588 11.059 41.2631Z" fill="url(#paint6_radial_371_623)"/>
<path d="M11.059 41.2631L16.8766 36.1157L32.4835 34.1865L40.5231 41.3418C40.9923 41.7594 41.2923 42.3344 41.3664 42.9581C41.5478 44.4864 40.354 45.8303 38.815 45.8303H12.7894C11.3472 45.8303 10.178 44.6611 10.178 43.2189C10.178 42.4709 10.4987 41.7588 11.059 41.2631Z" fill="url(#paint7_radial_371_623)"/>
<path d="M25.7813 41.2038C34.3988 41.2038 41.3847 34.2179 41.3847 25.6004C41.3847 16.9829 34.3988 9.99707 25.7813 9.99707C17.1638 9.99707 10.178 16.9829 10.178 25.6004C10.178 34.2179 17.1638 41.2038 25.7813 41.2038Z" fill="url(#paint8_radial_371_623)"/>
<path d="M25.7813 41.2038C34.3988 41.2038 41.3847 34.2179 41.3847 25.6004C41.3847 16.9829 34.3988 9.99707 25.7813 9.99707C17.1638 9.99707 10.178 16.9829 10.178 25.6004C10.178 34.2179 17.1638 41.2038 25.7813 41.2038Z" fill="url(#paint9_radial_371_623)"/>
<path d="M25.7813 41.2038C34.3988 41.2038 41.3847 34.2179 41.3847 25.6004C41.3847 16.9829 34.3988 9.99707 25.7813 9.99707C17.1638 9.99707 10.178 16.9829 10.178 25.6004C10.178 34.2179 17.1638 41.2038 25.7813 41.2038Z" fill="url(#paint10_radial_371_623)"/>
<path d="M25.7812 36.285C31.7581 36.285 36.6034 31.4398 36.6034 25.4628C36.6034 19.4859 31.7581 14.6406 25.7812 14.6406C19.8042 14.6406 14.959 19.4859 14.959 25.4628C14.959 31.4398 19.8042 36.285 25.7812 36.285Z" fill="url(#paint11_linear_371_623)"/>
<path d="M25.7812 36.285C31.7581 36.285 36.6034 31.4398 36.6034 25.4628C36.6034 19.4859 31.7581 14.6406 25.7812 14.6406C19.8042 14.6406 14.959 19.4859 14.959 25.4628C14.959 31.4398 19.8042 36.285 25.7812 36.285Z" fill="url(#paint12_radial_371_623)"/>
<path d="M25.7812 36.285C31.7581 36.285 36.6034 31.4398 36.6034 25.4628C36.6034 19.4859 31.7581 14.6406 25.7812 14.6406C19.8042 14.6406 14.959 19.4859 14.959 25.4628C14.959 31.4398 19.8042 36.285 25.7812 36.285Z" fill="url(#paint13_radial_371_623)"/>
<path d="M25.7812 36.285C31.7581 36.285 36.6034 31.4398 36.6034 25.4628C36.6034 19.4859 31.7581 14.6406 25.7812 14.6406C19.8042 14.6406 14.959 19.4859 14.959 25.4628C14.959 31.4398 19.8042 36.285 25.7812 36.285Z" fill="url(#paint14_radial_371_623)"/>
<path d="M25.7812 36.285C31.7581 36.285 36.6034 31.4398 36.6034 25.4628C36.6034 19.4859 31.7581 14.6406 25.7812 14.6406C19.8042 14.6406 14.959 19.4859 14.959 25.4628C14.959 31.4398 19.8042 36.285 25.7812 36.285Z" fill="url(#paint15_radial_371_623)"/>
<path d="M25.7812 36.285C31.7581 36.285 36.6034 31.4398 36.6034 25.4628C36.6034 19.4859 31.7581 14.6406 25.7812 14.6406C19.8042 14.6406 14.959 19.4859 14.959 25.4628C14.959 31.4398 19.8042 36.285 25.7812 36.285Z" fill="url(#paint16_radial_371_623)"/>
<path d="M25.7812 36.285C31.7581 36.285 36.6034 31.4398 36.6034 25.4628C36.6034 19.4859 31.7581 14.6406 25.7812 14.6406C19.8042 14.6406 14.959 19.4859 14.959 25.4628C14.959 31.4398 19.8042 36.285 25.7812 36.285Z" fill="url(#paint17_radial_371_623)"/>
<path d="M25.7812 36.285C31.7581 36.285 36.6034 31.4398 36.6034 25.4628C36.6034 19.4859 31.7581 14.6406 25.7812 14.6406C19.8042 14.6406 14.959 19.4859 14.959 25.4628C14.959 31.4398 19.8042 36.285 25.7812 36.285Z" fill="url(#paint18_radial_371_623)"/>
<path d="M25.7812 36.285C31.7581 36.285 36.6034 31.4398 36.6034 25.4628C36.6034 19.4859 31.7581 14.6406 25.7812 14.6406C19.8042 14.6406 14.959 19.4859 14.959 25.4628C14.959 31.4398 19.8042 36.285 25.7812 36.285Z" fill="url(#paint19_radial_371_623)"/>
<path d="M25.7812 36.285C31.7581 36.285 36.6034 31.4398 36.6034 25.4628C36.6034 19.4859 31.7581 14.6406 25.7812 14.6406C19.8042 14.6406 14.959 19.4859 14.959 25.4628C14.959 31.4398 19.8042 36.285 25.7812 36.285Z" fill="url(#paint20_radial_371_623)"/>
<path d="M25.7812 36.285C31.7581 36.285 36.6034 31.4398 36.6034 25.4628C36.6034 19.4859 31.7581 14.6406 25.7812 14.6406C19.8042 14.6406 14.959 19.4859 14.959 25.4628C14.959 31.4398 19.8042 36.285 25.7812 36.285Z" fill="url(#paint21_radial_371_623)"/>
<path d="M9.85278 3.59952C6.73728 5.80441 5.52737 9.86524 6.67677 13.4343C7.03975 14.5447 8.31016 14.9888 9.24784 14.3384L19.5623 7.05754C20.4848 6.40717 20.5756 4.99544 19.7286 4.21818C17.0215 1.75948 12.9683 1.39462 9.85278 3.59952Z" fill="url(#paint22_radial_371_623)"/>
<path d="M9.85278 3.59952C6.73728 5.80441 5.52737 9.86524 6.67677 13.4343C7.03975 14.5447 8.31016 14.9888 9.24784 14.3384L19.5623 7.05754C20.4848 6.40717 20.5756 4.99544 19.7286 4.21818C17.0215 1.75948 12.9683 1.39462 9.85278 3.59952Z" fill="url(#paint23_linear_371_623)"/>
<path d="M41.7097 3.59952C44.8252 5.80441 46.0351 9.86524 44.8857 13.4343C44.5227 14.5447 43.2524 14.9888 42.3147 14.3384L32.0002 7.05754C31.0777 6.40717 30.9869 4.99544 31.8339 4.21818C34.541 1.75948 38.5942 1.39462 41.7097 3.59952Z" fill="url(#paint24_radial_371_623)"/>
<path d="M41.7097 3.59952C44.8252 5.80441 46.0351 9.86524 44.8857 13.4343C44.5227 14.5447 43.2524 14.9888 42.3147 14.3384L32.0002 7.05754C31.0777 6.40717 30.9869 4.99544 31.8339 4.21818C34.541 1.75948 38.5942 1.39462 41.7097 3.59952Z" fill="url(#paint25_linear_371_623)"/>
<path fill-rule="evenodd" clip-rule="evenodd" d="M24.7008 24.5139C25.2981 23.8921 26.2864 23.8723 26.9082 24.4696L30.082 27.5563C30.7039 28.1536 30.7237 29.1419 30.1264 29.7637C29.5291 30.3855 28.5408 30.4053 27.919 29.808L24.7452 26.7213C24.1233 26.124 24.1035 25.1357 24.7008 24.5139Z" fill="url(#paint26_linear_371_623)"/>
<path fill-rule="evenodd" clip-rule="evenodd" d="M25.7812 17.7695C26.6437 17.7695 27.3429 18.4687 27.3429 19.3312V25.5759C27.3429 26.4384 26.6437 27.1376 25.7812 27.1376C24.9187 27.1376 24.2195 26.4384 24.2195 25.5759V19.3312C24.2195 18.4687 24.9187 17.7695 25.7812 17.7695Z" fill="url(#paint27_linear_371_623)"/>
<path fill-rule="evenodd" clip-rule="evenodd" d="M25.7812 17.7695C26.6437 17.7695 27.3429 18.4687 27.3429 19.3312V25.5759C27.3429 26.4384 26.6437 27.1376 25.7812 27.1376C24.9187 27.1376 24.2195 26.4384 24.2195 25.5759V19.3312C24.2195 18.4687 24.9187 17.7695 25.7812 17.7695Z" fill="url(#paint28_radial_371_623)"/>
<defs>
<linearGradient id="paint0_linear_371_623" x1="12.5378" y1="43.2371" x2="39.4515" y2="43.2371" gradientUnits="userSpaceOnUse">
<stop stop-color="#D4BDE5"/>
<stop offset="1" stop-color="#E5CAF2"/>
</linearGradient>
<linearGradient id="paint1_linear_371_623" x1="26.6765" y1="46.4902" x2="26.6765" y2="44.0767" gradientUnits="userSpaceOnUse">
<stop stop-color="#D4A6F6"/>
<stop offset="1" stop-color="#D4A6F6" stop-opacity="0"/>
</linearGradient>
<radialGradient id="paint2_radial_371_623" cx="0" cy="0" r="1" gradientUnits="userSpaceOnUse" gradientTransform="translate(22.6606 34.1865) rotate(104.908) scale(7.96034 12.0192)">
<stop offset="0.654006" stop-color="#BE87BE"/>
<stop offset="1" stop-color="#BE87BE" stop-opacity="0"/>
</radialGradient>
<linearGradient id="paint3_linear_371_623" x1="38.0372" y1="38.3948" x2="36.8165" y2="39.7132" gradientUnits="userSpaceOnUse">
<stop stop-color="#F3E5F1"/>
<stop offset="1" stop-color="#F3E5F1" stop-opacity="0"/>
</linearGradient>
<linearGradient id="paint4_linear_371_623" x1="13.2812" y1="39.0624" x2="26.5625" y2="55.4686" gradientUnits="userSpaceOnUse">
<stop stop-color="#978B99"/>
<stop offset="0.119178" stop-color="#978B99" stop-opacity="0"/>
</linearGradient>
<linearGradient id="paint5_linear_371_623" x1="39.8437" y1="38.2811" x2="23.4375" y2="55.4686" gradientUnits="userSpaceOnUse">
<stop offset="0.0511486" stop-color="#978B99"/>
<stop offset="0.0863513" stop-color="#978B99" stop-opacity="0"/>
<stop offset="0.0882432" stop-color="#E4C9F1" stop-opacity="0"/>
<stop offset="0.107432" stop-color="#F1E1F8" stop-opacity="0.5"/>
<stop offset="0.125541" stop-color="#F1E1F8"/>
<stop offset="0.143818" stop-color="#F1E1F8" stop-opacity="0.5"/>
<stop offset="0.174899" stop-color="#E4C9F1" stop-opacity="0"/>
</linearGradient>
<radialGradient id="paint6_radial_371_623" cx="0" cy="0" r="1" gradientUnits="userSpaceOnUse" gradientTransform="translate(10.1562 44.5311) rotate(53.9726) scale(10.6261 6.17556)">
<stop stop-color="#978B99"/>
<stop offset="0.30777" stop-color="#978B99" stop-opacity="0"/>
</radialGradient>
<radialGradient id="paint7_radial_371_623" cx="0" cy="0" r="1" gradientUnits="userSpaceOnUse" gradientTransform="translate(41.4062 44.5311) rotate(109.654) scale(11.6141 3.90203)">
<stop stop-color="#F1E1F8"/>
<stop offset="0.30777" stop-color="#F1E1F8" stop-opacity="0"/>
</radialGradient>
<radialGradient id="paint8_radial_371_623" cx="0" cy="0" r="1" gradientUnits="userSpaceOnUse" gradientTransform="translate(34.2774 14.1523) rotate(120.726) scale(28.2875)">
<stop stop-color="#A5DEF5"/>
<stop offset="1" stop-color="#BEE7F7"/>
</radialGradient>
<radialGradient id="paint9_radial_371_623" cx="0" cy="0" r="1" gradientUnits="userSpaceOnUse" gradientTransform="translate(25.7814 25.6004) rotate(90) scale(12.2335)">
<stop offset="0.848448" stop-color="#759EAF"/>
<stop offset="1" stop-color="#759EAF"/>
</radialGradient>
<radialGradient id="paint10_radial_371_623" cx="0" cy="0" r="1" gradientUnits="userSpaceOnUse" gradientTransform="translate(25.7814 25.6004) rotate(90) scale(15.806)">
<stop offset="0.925859" stop-color="#8DBED2"/>
<stop offset="1" stop-color="#759EAF"/>
</radialGradient>
<linearGradient id="paint11_linear_371_623" x1="17.5781" y1="18.1555" x2="31.7382" y2="35.4406" gradientUnits="userSpaceOnUse">
<stop stop-color="#FFECFF"/>
<stop offset="1" stop-color="#DDC8E2"/>
</linearGradient>
<radialGradient id="paint12_radial_371_623" cx="0" cy="0" r="1" gradientUnits="userSpaceOnUse" gradientTransform="translate(25.7812 15.8117) rotate(90) scale(21.4844)">
<stop offset="0.718182" stop-color="#B89A9F" stop-opacity="0"/>
<stop offset="1" stop-color="#B89A9F"/>
</radialGradient>
<radialGradient id="paint13_radial_371_623" cx="0" cy="0" r="1" gradientUnits="userSpaceOnUse" gradientTransform="translate(22.4609 22.843) rotate(32.6073) scale(15.7663 13.9213)">
<stop offset="0.887109" stop-color="#B394A7" stop-opacity="0"/>
<stop offset="0.977057" stop-color="#B394A7"/>
</radialGradient>
<radialGradient id="paint14_radial_371_623" cx="0" cy="0" r="1" gradientUnits="userSpaceOnUse" gradientTransform="translate(28.9063 29.6872) rotate(-135) scale(2.20971)">
<stop stop-color="#B394A7"/>
<stop offset="0.798887" stop-color="#B394A7" stop-opacity="0"/>
</radialGradient>
<radialGradient id="paint15_radial_371_623" cx="0" cy="0" r="1" gradientUnits="userSpaceOnUse" gradientTransform="translate(28.125 28.906) rotate(-135) scale(2.20971)">
<stop stop-color="#B394A7"/>
<stop offset="0.852849" stop-color="#B394A7" stop-opacity="0"/>
</radialGradient>
<radialGradient id="paint16_radial_371_623" cx="0" cy="0" r="1" gradientUnits="userSpaceOnUse" gradientTransform="translate(27.3438 28.1247) rotate(-135) scale(2.20971)">
<stop stop-color="#B394A7"/>
<stop offset="0.808765" stop-color="#B394A7" stop-opacity="0"/>
</radialGradient>
<radialGradient id="paint17_radial_371_623" cx="0" cy="0" r="1" gradientUnits="userSpaceOnUse" gradientTransform="translate(26.5625 27.3435) rotate(-135) scale(2.20971)">
<stop stop-color="#B394A7"/>
<stop offset="0.852922" stop-color="#B394A7" stop-opacity="0"/>
</radialGradient>
<radialGradient id="paint18_radial_371_623" cx="0" cy="0" r="1" gradientUnits="userSpaceOnUse" gradientTransform="translate(25 19.531) rotate(90) scale(2.34375)">
<stop stop-color="#B394A7"/>
<stop offset="1" stop-color="#B394A7" stop-opacity="0"/>
</radialGradient>
<radialGradient id="paint19_radial_371_623" cx="0" cy="0" r="1" gradientUnits="userSpaceOnUse" gradientTransform="translate(25 21.8747) rotate(90) scale(2.34375)">
<stop stop-color="#B394A7"/>
<stop offset="1" stop-color="#B394A7" stop-opacity="0"/>
</radialGradient>
<radialGradient id="paint20_radial_371_623" cx="0" cy="0" r="1" gradientUnits="userSpaceOnUse" gradientTransform="translate(25 24.2185) rotate(-90) scale(2.34375)">
<stop stop-color="#B394A7"/>
<stop offset="1" stop-color="#B394A7" stop-opacity="0"/>
</radialGradient>
<radialGradient id="paint21_radial_371_623" cx="0" cy="0" r="1" gradientUnits="userSpaceOnUse" gradientTransform="translate(25 26.5622) rotate(-90) scale(2.34375)">
<stop stop-color="#B394A7"/>
<stop offset="1" stop-color="#B394A7" stop-opacity="0"/>
</radialGradient>
<radialGradient id="paint22_radial_371_623" cx="0" cy="0" r="1" gradientUnits="userSpaceOnUse" gradientTransform="translate(19.8242 6.92502) rotate(-169.408) scale(12.2199 13.7474)">
<stop stop-color="#FFDC56"/>
<stop offset="0.593115" stop-color="#FFB02E"/>
<stop offset="1" stop-color="#BF8942"/>
</radialGradient>
<linearGradient id="paint23_linear_371_623" x1="15.9676" y1="9.67974" x2="15.4512" y2="9.0035" gradientUnits="userSpaceOnUse">
<stop stop-color="#F88F6D"/>
<stop offset="1" stop-color="#F88F6D" stop-opacity="0"/>
</linearGradient>
<radialGradient id="paint24_radial_371_623" cx="0" cy="0" r="1" gradientUnits="userSpaceOnUse" gradientTransform="translate(44.8242 6.92502) rotate(-173.953) scale(13.6502 23.6876)">
<stop stop-color="#FFFF63"/>
<stop offset="0.7359" stop-color="#F1AE2C"/>
<stop offset="1" stop-color="#C48039"/>
</radialGradient>
<linearGradient id="paint25_linear_371_623" x1="38.2812" y1="11.6839" x2="38.9105" y2="10.7986" gradientUnits="userSpaceOnUse">
<stop stop-color="#E76D2F"/>
<stop offset="1" stop-color="#E76D2F" stop-opacity="0"/>
</linearGradient>
<linearGradient id="paint26_linear_371_623" x1="28.2217" y1="26.7862" x2="27.6956" y2="30.0829" gradientUnits="userSpaceOnUse">
<stop stop-color="#759EAF"/>
<stop offset="1" stop-color="#5E7E8C"/>
</linearGradient>
<linearGradient id="paint27_linear_371_623" x1="25.1003" y1="21.7697" x2="28.0112" y2="21.7697" gradientUnits="userSpaceOnUse">
<stop stop-color="#3A234F"/>
<stop offset="1" stop-color="#3A323B"/>
</linearGradient>
<radialGradient id="paint28_radial_371_623" cx="0" cy="0" r="1" gradientUnits="userSpaceOnUse" gradientTransform="translate(26.5733 18.4029) rotate(114.747) scale(1.89229 1.80428)">
<stop stop-color="#463C4B"/>
<stop offset="1" stop-color="#463C4B" stop-opacity="0"/>
</radialGradient>
</defs>
</svg>
