<svg viewBox="0 0 91 133" fill="none" xmlns="http://www.w3.org/2000/svg">
<path d="M47.6666 21.6179C45.9841 23.4873 43.8336 30.395 45.9058 32.7632C49.1638 36.4867 54.1231 36.6537 57.2512 32.5631C59.5783 29.5199 59.9071 26.518 57.031 23.7789C55.2443 22.0773 53.3734 19.4489 50.9081 19.0967" stroke="white" stroke-width="9.97467" stroke-linecap="round"/>
<path d="M44.0408 43.1588C39.1342 43.1588 36.1095 49.3356 36.7174 53.5037C37.3027 57.5173 42.5211 60.6923 46.0418 58.7262C48.7133 57.2343 55.2115 52.6277 52.785 48.5214C51.7341 46.7428 48.2711 42.8523 46.2019 42.4385" stroke="white" stroke-width="9.97467" stroke-linecap="round"/>
<path d="M30.212 6.90307C27.5287 16.2946 23.81 25.6273 20.3473 34.7563C18.9383 38.4709 17.4605 42.2211 16.2453 46.0016C14.9012 50.1836 13.9305 54.629 12.2835 58.6877C10.157 63.928 9.39617 69.5057 7.50119 74.8354C6.4734 77.726 5 80.8884 5 83.9797C5 86.3415 6.45647 86.8611 8.84183 86.8611C11.6961 86.8611 16.4069 85.9208 18.9666 87.4213C21.171 88.7135 24.2818 88.9109 26.8104 89.3022C28.2311 89.5221 30.1075 89.5979 31.1324 90.6229C33.489 92.9795 37.2523 93.2954 40.2367 94.4247C43.1417 95.5238 46.5744 95.8226 49.3411 97.206C50.0094 97.5401 52.5914 100.025 53.2229 99.8272C53.5052 99.739 54.7737 95.9933 55.0438 95.5252C58.4245 89.6652 61.3777 83.1351 63.908 76.8563C66.7408 69.8267 69.6121 62.8624 72.392 55.7863C75.0371 49.0534 77.7952 42.4314 80.2758 35.6367C81.9532 31.0419 83.173 26.1962 84.4378 21.47C84.7301 20.3774 86.4881 16.482 85.8784 15.5472C84.878 14.0131 81.9047 14.4667 80.4959 14.4667C76.6428 14.4667 72.2167 15.0796 68.4101 14.2866C65.5219 13.6849 62.3678 13.2934 59.4259 13.026C57.3068 12.8333 55.5455 11.631 53.5231 11.005C51.556 10.3962 49.3682 9.43483 47.6603 8.26371C44.9548 6.40855 41.2677 6.92735 38.1357 6.90307C36.0362 6.88679 35.6764 5.84437 33.8937 5.26229C31.7962 4.57738 28.4532 5.23024 27.6908 7.26324" stroke="white" stroke-width="9.97467" stroke-linecap="round"/>
<path d="M29.8519 73.1745C29.8519 77.4703 31.6331 78.0787 34.5141 80.7381C35.1382 81.3142 36.3006 82.5192 37.1954 82.679C40.4265 83.256 43.7532 81.2169 45.4594 78.6171C47.7772 75.0851 42.2613 71.0675 39.7767 69.2927C38.5198 68.3949 35.9246 68.7204 34.5342 68.9325C31.6165 69.3776 30.9647 69.761 29.1316 72.094" stroke="white" stroke-width="9.97467" stroke-linecap="round"/>
<path d="M27.0858 91.0049C25.7327 94.4945 24.9657 98.0352 23.2911 101.423C21.4523 105.144 19.9961 109.12 18.6396 113.039C17.3539 116.753 16.4173 120.55 15.2801 124.246C15.022 125.085 15.6113 125.266 16.3274 125.66C17.4601 126.283 17.7655 127.08 19.2108 127.224C19.9574 127.299 20.6072 127.335 21.3326 127.496C22.0956 127.666 22.0545 128.472 22.7879 127.605C24.1244 126.026 25.1665 123.016 25.7257 121.09C26.6009 118.076 28.0381 115.078 29.4388 112.277C30.7941 109.566 32.0049 106.748 33.2063 103.953C34.0266 102.045 35.3151 99.6509 35.6544 97.615" stroke="white" stroke-width="9.97467" stroke-linecap="round"/>
</svg>
