<svg viewBox="0 0 55 55" fill="none" xmlns="http://www.w3.org/2000/svg">
<circle cx="9.245" cy="39.9623" r="2.66541" fill="url(#paint0_radial_256_853)"/>
<circle cx="45.7753" cy="39.9828" r="2.66541" fill="url(#paint1_radial_256_853)"/>
<circle cx="45.7753" cy="39.9828" r="2.66541" fill="url(#paint2_radial_256_853)"/>
<path d="M15.4822 22.4867C14.4509 24.0336 13.7008 26.139 13.4412 26.9447L17.4695 29.8451L20.5444 25.951C20.1819 25.3916 19.3198 24.145 18.8257 23.5005C18.3315 22.856 17.5859 22.0682 17.2815 21.7549L15.4822 22.4867Z" fill="url(#paint3_radial_256_853)"/>
<path d="M15.4822 22.4867C14.4509 24.0336 13.7008 26.139 13.4412 26.9447L17.4695 29.8451L20.5444 25.951C20.1819 25.3916 19.3198 24.145 18.8257 23.5005C18.3315 22.856 17.5859 22.0682 17.2815 21.7549L15.4822 22.4867Z" fill="url(#paint4_radial_256_853)"/>
<path d="M39.5178 22.4867C40.5491 24.0336 41.2992 26.139 41.5588 26.9447L37.5305 29.8451L34.4556 25.951C34.8181 25.3916 35.6802 24.145 36.1743 23.5005C36.6685 22.856 37.4141 22.0682 37.7185 21.7549L39.5178 22.4867Z" fill="url(#paint5_radial_256_853)"/>
<path d="M39.5178 22.4867C40.5491 24.0336 41.2992 26.139 41.5588 26.9447L37.5305 29.8451L34.4556 25.951C34.8181 25.3916 35.6802 24.145 36.1743 23.5005C36.6685 22.856 37.4141 22.0682 37.7185 21.7549L39.5178 22.4867Z" fill="url(#paint6_radial_256_853)"/>
<path d="M39.5178 22.4867C40.5491 24.0336 41.2992 26.139 41.5588 26.9447L37.5305 29.8451L34.4556 25.951C34.8181 25.3916 35.6802 24.145 36.1743 23.5005C36.6685 22.856 37.4141 22.0682 37.7185 21.7549L39.5178 22.4867Z" fill="url(#paint7_radial_256_853)"/>
<path d="M5.37109 22.6072L10.7099 48.6612C10.9721 49.9406 12.098 50.8591 13.4039 50.8591H41.5961C42.902 50.8591 44.0279 49.9406 44.2901 48.6612L49.6289 22.6072L47.9246 21.7747C45.3727 23.6277 40.0321 27.4277 38.6524 28.2603C37.5523 28.924 36.5418 27.8422 36.3326 27.5352C34.4119 24.7153 31.4826 20.6112 30.387 19.1697C29.2643 17.6926 27.996 16.9631 27.5 16.9004C27.004 16.9631 25.7357 17.6926 24.613 19.1697C23.5174 20.6112 20.5881 24.7153 18.6674 27.5352C18.4582 27.8422 17.4476 28.924 16.3476 28.2603C14.968 27.4277 9.62735 23.6277 7.0754 21.7747L5.37109 22.6072Z" fill="url(#paint8_linear_256_853)"/>
<path d="M5.37109 22.6072L10.7099 48.6612C10.9721 49.9406 12.098 50.8591 13.4039 50.8591H41.5961C42.902 50.8591 44.0279 49.9406 44.2901 48.6612L49.6289 22.6072L47.9246 21.7747C45.3727 23.6277 40.0321 27.4277 38.6524 28.2603C37.5523 28.924 36.5418 27.8422 36.3326 27.5352C34.4119 24.7153 31.4826 20.6112 30.387 19.1697C29.2643 17.6926 27.996 16.9631 27.5 16.9004C27.004 16.9631 25.7357 17.6926 24.613 19.1697C23.5174 20.6112 20.5881 24.7153 18.6674 27.5352C18.4582 27.8422 17.4476 28.924 16.3476 28.2603C14.968 27.4277 9.62735 23.6277 7.0754 21.7747L5.37109 22.6072Z" fill="url(#paint9_radial_256_853)"/>
<path d="M5.37109 22.6072L10.7099 48.6612C10.9721 49.9406 12.098 50.8591 13.4039 50.8591H41.5961C42.902 50.8591 44.0279 49.9406 44.2901 48.6612L49.6289 22.6072L47.9246 21.7747C45.3727 23.6277 40.0321 27.4277 38.6524 28.2603C37.5523 28.924 36.5418 27.8422 36.3326 27.5352C34.4119 24.7153 31.4826 20.6112 30.387 19.1697C29.2643 17.6926 27.996 16.9631 27.5 16.9004C27.004 16.9631 25.7357 17.6926 24.613 19.1697C23.5174 20.6112 20.5881 24.7153 18.6674 27.5352C18.4582 27.8422 17.4476 28.924 16.3476 28.2603C14.968 27.4277 9.62735 23.6277 7.0754 21.7747L5.37109 22.6072Z" fill="url(#paint10_linear_256_853)"/>
<path d="M5.37109 22.6072L10.7099 48.6612C10.9721 49.9406 12.098 50.8591 13.4039 50.8591H41.5961C42.902 50.8591 44.0279 49.9406 44.2901 48.6612L49.6289 22.6072L47.9246 21.7747C45.3727 23.6277 40.0321 27.4277 38.6524 28.2603C37.5523 28.924 36.5418 27.8422 36.3326 27.5352C34.4119 24.7153 31.4826 20.6112 30.387 19.1697C29.2643 17.6926 27.996 16.9631 27.5 16.9004C27.004 16.9631 25.7357 17.6926 24.613 19.1697C23.5174 20.6112 20.5881 24.7153 18.6674 27.5352C18.4582 27.8422 17.4476 28.924 16.3476 28.2603C14.968 27.4277 9.62735 23.6277 7.0754 21.7747L5.37109 22.6072Z" fill="url(#paint11_linear_256_853)"/>
<path d="M5.37109 22.6072L10.7099 48.6612C10.9721 49.9406 12.098 50.8591 13.4039 50.8591H41.5961C42.902 50.8591 44.0279 49.9406 44.2901 48.6612L49.6289 22.6072L47.9246 21.7747C45.3727 23.6277 40.0321 27.4277 38.6524 28.2603C37.5523 28.924 36.5418 27.8422 36.3326 27.5352C34.4119 24.7153 31.4826 20.6112 30.387 19.1697C29.2643 17.6926 27.996 16.9631 27.5 16.9004C27.004 16.9631 25.7357 17.6926 24.613 19.1697C23.5174 20.6112 20.5881 24.7153 18.6674 27.5352C18.4582 27.8422 17.4476 28.924 16.3476 28.2603C14.968 27.4277 9.62735 23.6277 7.0754 21.7747L5.37109 22.6072Z" fill="url(#paint12_radial_256_853)"/>
<path d="M5.37109 22.6072L10.7099 48.6612C10.9721 49.9406 12.098 50.8591 13.4039 50.8591H41.5961C42.902 50.8591 44.0279 49.9406 44.2901 48.6612L49.6289 22.6072L47.9246 21.7747C45.3727 23.6277 40.0321 27.4277 38.6524 28.2603C37.5523 28.924 36.5418 27.8422 36.3326 27.5352C34.4119 24.7153 31.4826 20.6112 30.387 19.1697C29.2643 17.6926 27.996 16.9631 27.5 16.9004C27.004 16.9631 25.7357 17.6926 24.613 19.1697C23.5174 20.6112 20.5881 24.7153 18.6674 27.5352C18.4582 27.8422 17.4476 28.924 16.3476 28.2603C14.968 27.4277 9.62735 23.6277 7.0754 21.7747L5.37109 22.6072Z" fill="url(#paint13_radial_256_853)"/>
<path d="M5.37109 22.6072L10.7099 48.6612C10.9721 49.9406 12.098 50.8591 13.4039 50.8591H41.5961C42.902 50.8591 44.0279 49.9406 44.2901 48.6612L49.6289 22.6072L47.9246 21.7747C45.3727 23.6277 40.0321 27.4277 38.6524 28.2603C37.5523 28.924 36.5418 27.8422 36.3326 27.5352C34.4119 24.7153 31.4826 20.6112 30.387 19.1697C29.2643 17.6926 27.996 16.9631 27.5 16.9004C27.004 16.9631 25.7357 17.6926 24.613 19.1697C23.5174 20.6112 20.5881 24.7153 18.6674 27.5352C18.4582 27.8422 17.4476 28.924 16.3476 28.2603C14.968 27.4277 9.62735 23.6277 7.0754 21.7747L5.37109 22.6072Z" fill="url(#paint14_radial_256_853)" fill-opacity="0.9"/>
<path d="M5.37109 22.6072L10.7099 48.6612C10.9721 49.9406 12.098 50.8591 13.4039 50.8591H41.5961C42.902 50.8591 44.0279 49.9406 44.2901 48.6612L49.6289 22.6072L47.9246 21.7747C45.3727 23.6277 40.0321 27.4277 38.6524 28.2603C37.5523 28.924 36.5418 27.8422 36.3326 27.5352C34.4119 24.7153 31.4826 20.6112 30.387 19.1697C29.2643 17.6926 27.996 16.9631 27.5 16.9004C27.004 16.9631 25.7357 17.6926 24.613 19.1697C23.5174 20.6112 20.5881 24.7153 18.6674 27.5352C18.4582 27.8422 17.4476 28.924 16.3476 28.2603C14.968 27.4277 9.62735 23.6277 7.0754 21.7747L5.37109 22.6072Z" fill="url(#paint15_radial_256_853)" fill-opacity="0.6"/>
<path d="M5.37109 22.6072L10.7099 48.6612C10.9721 49.9406 12.098 50.8591 13.4039 50.8591H41.5961C42.902 50.8591 44.0279 49.9406 44.2901 48.6612L49.6289 22.6072L47.9246 21.7747C45.3727 23.6277 40.0321 27.4277 38.6524 28.2603C37.5523 28.924 36.5418 27.8422 36.3326 27.5352C34.4119 24.7153 31.4826 20.6112 30.387 19.1697C29.2643 17.6926 27.996 16.9631 27.5 16.9004C27.004 16.9631 25.7357 17.6926 24.613 19.1697C23.5174 20.6112 20.5881 24.7153 18.6674 27.5352C18.4582 27.8422 17.4476 28.924 16.3476 28.2603C14.968 27.4277 9.62735 23.6277 7.0754 21.7747L5.37109 22.6072Z" fill="url(#paint16_radial_256_853)" fill-opacity="0.6"/>
<path d="M5.37109 22.6072L10.7099 48.6612C10.9721 49.9406 12.098 50.8591 13.4039 50.8591H41.5961C42.902 50.8591 44.0279 49.9406 44.2901 48.6612L49.6289 22.6072L47.9246 21.7747C45.3727 23.6277 40.0321 27.4277 38.6524 28.2603C37.5523 28.924 36.5418 27.8422 36.3326 27.5352C34.4119 24.7153 31.4826 20.6112 30.387 19.1697C29.2643 17.6926 27.996 16.9631 27.5 16.9004C27.004 16.9631 25.7357 17.6926 24.613 19.1697C23.5174 20.6112 20.5881 24.7153 18.6674 27.5352C18.4582 27.8422 17.4476 28.924 16.3476 28.2603C14.968 27.4277 9.62735 23.6277 7.0754 21.7747L5.37109 22.6072Z" fill="url(#paint17_linear_256_853)" fill-opacity="0.7"/>
<path d="M5.37109 22.6072L10.7099 48.6612C10.9721 49.9406 12.098 50.8591 13.4039 50.8591H41.5961C42.902 50.8591 44.0279 49.9406 44.2901 48.6612L49.6289 22.6072L47.9246 21.7747C45.3727 23.6277 40.0321 27.4277 38.6524 28.2603C37.5523 28.924 36.5418 27.8422 36.3326 27.5352C34.4119 24.7153 31.4826 20.6112 30.387 19.1697C29.2643 17.6926 27.996 16.9631 27.5 16.9004C27.004 16.9631 25.7357 17.6926 24.613 19.1697C23.5174 20.6112 20.5881 24.7153 18.6674 27.5352C18.4582 27.8422 17.4476 28.924 16.3476 28.2603C14.968 27.4277 9.62735 23.6277 7.0754 21.7747L5.37109 22.6072Z" fill="url(#paint18_radial_256_853)" fill-opacity="0.8"/>
<path d="M5.37109 22.6072L10.7099 48.6612C10.9721 49.9406 12.098 50.8591 13.4039 50.8591H41.5961C42.902 50.8591 44.0279 49.9406 44.2901 48.6612L49.6289 22.6072L47.9246 21.7747C45.3727 23.6277 40.0321 27.4277 38.6524 28.2603C37.5523 28.924 36.5418 27.8422 36.3326 27.5352C34.4119 24.7153 31.4826 20.6112 30.387 19.1697C29.2643 17.6926 27.996 16.9631 27.5 16.9004C27.004 16.9631 25.7357 17.6926 24.613 19.1697C23.5174 20.6112 20.5881 24.7153 18.6674 27.5352C18.4582 27.8422 17.4476 28.924 16.3476 28.2603C14.968 27.4277 9.62735 23.6277 7.0754 21.7747L5.37109 22.6072Z" fill="url(#paint19_radial_256_853)" fill-opacity="0.9"/>
<path d="M5.37109 22.6072L10.7099 48.6612C10.9721 49.9406 12.098 50.8591 13.4039 50.8591H41.5961C42.902 50.8591 44.0279 49.9406 44.2901 48.6612L49.6289 22.6072L47.9246 21.7747C45.3727 23.6277 40.0321 27.4277 38.6524 28.2603C37.5523 28.924 36.5418 27.8422 36.3326 27.5352C34.4119 24.7153 31.4826 20.6112 30.387 19.1697C29.2643 17.6926 27.996 16.9631 27.5 16.9004C27.004 16.9631 25.7357 17.6926 24.613 19.1697C23.5174 20.6112 20.5881 24.7153 18.6674 27.5352C18.4582 27.8422 17.4476 28.924 16.3476 28.2603C14.968 27.4277 9.62735 23.6277 7.0754 21.7747L5.37109 22.6072Z" fill="url(#paint20_radial_256_853)" fill-opacity="0.9"/>
<path d="M5.37109 22.6072L10.7099 48.6612C10.9721 49.9406 12.098 50.8591 13.4039 50.8591H41.5961C42.902 50.8591 44.0279 49.9406 44.2901 48.6612L49.6289 22.6072L47.9246 21.7747C45.3727 23.6277 40.0321 27.4277 38.6524 28.2603C37.5523 28.924 36.5418 27.8422 36.3326 27.5352C34.4119 24.7153 31.4826 20.6112 30.387 19.1697C29.2643 17.6926 27.996 16.9631 27.5 16.9004C27.004 16.9631 25.7357 17.6926 24.613 19.1697C23.5174 20.6112 20.5881 24.7153 18.6674 27.5352C18.4582 27.8422 17.4476 28.924 16.3476 28.2603C14.968 27.4277 9.62735 23.6277 7.0754 21.7747L5.37109 22.6072Z" fill="url(#paint21_linear_256_853)" fill-opacity="0.8"/>
<path d="M5.37109 22.6072L10.7099 48.6612C10.9721 49.9406 12.098 50.8591 13.4039 50.8591H41.5961C42.902 50.8591 44.0279 49.9406 44.2901 48.6612L49.6289 22.6072L47.9246 21.7747C45.3727 23.6277 40.0321 27.4277 38.6524 28.2603C37.5523 28.924 36.5418 27.8422 36.3326 27.5352C34.4119 24.7153 31.4826 20.6112 30.387 19.1697C29.2643 17.6926 27.996 16.9631 27.5 16.9004C27.004 16.9631 25.7357 17.6926 24.613 19.1697C23.5174 20.6112 20.5881 24.7153 18.6674 27.5352C18.4582 27.8422 17.4476 28.924 16.3476 28.2603C14.968 27.4277 9.62735 23.6277 7.0754 21.7747L5.37109 22.6072Z" fill="url(#paint22_radial_256_853)"/>
<path d="M5.37109 22.6072L10.7099 48.6612C10.9721 49.9406 12.098 50.8591 13.4039 50.8591H41.5961C42.902 50.8591 44.0279 49.9406 44.2901 48.6612L49.6289 22.6072L47.9246 21.7747C45.3727 23.6277 40.0321 27.4277 38.6524 28.2603C37.5523 28.924 36.5418 27.8422 36.3326 27.5352C34.4119 24.7153 31.4826 20.6112 30.387 19.1697C29.2643 17.6926 27.996 16.9631 27.5 16.9004C27.004 16.9631 25.7357 17.6926 24.613 19.1697C23.5174 20.6112 20.5881 24.7153 18.6674 27.5352C18.4582 27.8422 17.4476 28.924 16.3476 28.2603C14.968 27.4277 9.62735 23.6277 7.0754 21.7747L5.37109 22.6072Z" fill="url(#paint23_linear_256_853)"/>
<path d="M5.37109 22.6072L10.7099 48.6612C10.9721 49.9406 12.098 50.8591 13.4039 50.8591H41.5961C42.902 50.8591 44.0279 49.9406 44.2901 48.6612L49.6289 22.6072L47.9246 21.7747C45.3727 23.6277 40.0321 27.4277 38.6524 28.2603C37.5523 28.924 36.5418 27.8422 36.3326 27.5352C34.4119 24.7153 31.4826 20.6112 30.387 19.1697C29.2643 17.6926 27.996 16.9631 27.5 16.9004C27.004 16.9631 25.7357 17.6926 24.613 19.1697C23.5174 20.6112 20.5881 24.7153 18.6674 27.5352C18.4582 27.8422 17.4476 28.924 16.3476 28.2603C14.968 27.4277 9.62735 23.6277 7.0754 21.7747L5.37109 22.6072Z" fill="url(#paint24_linear_256_853)"/>
<path d="M5.37109 22.6072L10.7099 48.6612C10.9721 49.9406 12.098 50.8591 13.4039 50.8591H41.5961C42.902 50.8591 44.0279 49.9406 44.2901 48.6612L49.6289 22.6072L47.9246 21.7747C45.3727 23.6277 40.0321 27.4277 38.6524 28.2603C37.5523 28.924 36.5418 27.8422 36.3326 27.5352C34.4119 24.7153 31.4826 20.6112 30.387 19.1697C29.2643 17.6926 27.996 16.9631 27.5 16.9004C27.004 16.9631 25.7357 17.6926 24.613 19.1697C23.5174 20.6112 20.5881 24.7153 18.6674 27.5352C18.4582 27.8422 17.4476 28.924 16.3476 28.2603C14.968 27.4277 9.62735 23.6277 7.0754 21.7747L5.37109 22.6072Z" fill="url(#paint25_linear_256_853)"/>
<path d="M5.37109 22.6072L10.7099 48.6612C10.9721 49.9406 12.098 50.8591 13.4039 50.8591H41.5961C42.902 50.8591 44.0279 49.9406 44.2901 48.6612L49.6289 22.6072L47.9246 21.7747C45.3727 23.6277 40.0321 27.4277 38.6524 28.2603C37.5523 28.924 36.5418 27.8422 36.3326 27.5352C34.4119 24.7153 31.4826 20.6112 30.387 19.1697C29.2643 17.6926 27.996 16.9631 27.5 16.9004C27.004 16.9631 25.7357 17.6926 24.613 19.1697C23.5174 20.6112 20.5881 24.7153 18.6674 27.5352C18.4582 27.8422 17.4476 28.924 16.3476 28.2603C14.968 27.4277 9.62735 23.6277 7.0754 21.7747L5.37109 22.6072Z" fill="url(#paint26_radial_256_853)" fill-opacity="0.9"/>
<path d="M5.37109 22.6072L10.7099 48.6612C10.9721 49.9406 12.098 50.8591 13.4039 50.8591H41.5961C42.902 50.8591 44.0279 49.9406 44.2901 48.6612L49.6289 22.6072L47.9246 21.7747C45.3727 23.6277 40.0321 27.4277 38.6524 28.2603C37.5523 28.924 36.5418 27.8422 36.3326 27.5352C34.4119 24.7153 31.4826 20.6112 30.387 19.1697C29.2643 17.6926 27.996 16.9631 27.5 16.9004C27.004 16.9631 25.7357 17.6926 24.613 19.1697C23.5174 20.6112 20.5881 24.7153 18.6674 27.5352C18.4582 27.8422 17.4476 28.924 16.3476 28.2603C14.968 27.4277 9.62735 23.6277 7.0754 21.7747L5.37109 22.6072Z" fill="url(#paint27_radial_256_853)" fill-opacity="0.9"/>
<path d="M5.37109 22.6072L10.7099 48.6612C10.9721 49.9406 12.098 50.8591 13.4039 50.8591H41.5961C42.902 50.8591 44.0279 49.9406 44.2901 48.6612L49.6289 22.6072L47.9246 21.7747C45.3727 23.6277 40.0321 27.4277 38.6524 28.2603C37.5523 28.924 36.5418 27.8422 36.3326 27.5352C34.4119 24.7153 31.4826 20.6112 30.387 19.1697C29.2643 17.6926 27.996 16.9631 27.5 16.9004C27.004 16.9631 25.7357 17.6926 24.613 19.1697C23.5174 20.6112 20.5881 24.7153 18.6674 27.5352C18.4582 27.8422 17.4476 28.924 16.3476 28.2603C14.968 27.4277 9.62735 23.6277 7.0754 21.7747L5.37109 22.6072Z" fill="url(#paint28_radial_256_853)" fill-opacity="0.9"/>
<path d="M5.37109 22.6072L10.7099 48.6612C10.9721 49.9406 12.098 50.8591 13.4039 50.8591H41.5961C42.902 50.8591 44.0279 49.9406 44.2901 48.6612L49.6289 22.6072L47.9246 21.7747C45.3727 23.6277 40.0321 27.4277 38.6524 28.2603C37.5523 28.924 36.5418 27.8422 36.3326 27.5352C34.4119 24.7153 31.4826 20.6112 30.387 19.1697C29.2643 17.6926 27.996 16.9631 27.5 16.9004C27.004 16.9631 25.7357 17.6926 24.613 19.1697C23.5174 20.6112 20.5881 24.7153 18.6674 27.5352C18.4582 27.8422 17.4476 28.924 16.3476 28.2603C14.968 27.4277 9.62735 23.6277 7.0754 21.7747L5.37109 22.6072Z" fill="url(#paint29_radial_256_853)" fill-opacity="0.8"/>
<path d="M5.37109 22.6072L10.7099 48.6612C10.9721 49.9406 12.098 50.8591 13.4039 50.8591H41.5961C42.902 50.8591 44.0279 49.9406 44.2901 48.6612L49.6289 22.6072L47.9246 21.7747C45.3727 23.6277 40.0321 27.4277 38.6524 28.2603C37.5523 28.924 36.5418 27.8422 36.3326 27.5352C34.4119 24.7153 31.4826 20.6112 30.387 19.1697C29.2643 17.6926 27.996 16.9631 27.5 16.9004C27.004 16.9631 25.7357 17.6926 24.613 19.1697C23.5174 20.6112 20.5881 24.7153 18.6674 27.5352C18.4582 27.8422 17.4476 28.924 16.3476 28.2603C14.968 27.4277 9.62735 23.6277 7.0754 21.7747L5.37109 22.6072Z" fill="url(#paint30_radial_256_853)" fill-opacity="0.8"/>
<path d="M40.8707 40.8074C40.4151 42.2072 38.9504 42.9089 37.5506 42.4532C36.4966 42.0235 36.0409 40.8183 36.4966 39.4185C36.9522 38.0188 38.3873 37.2155 39.256 37.4983C40.6557 37.954 41.3264 39.4076 40.8707 40.8074Z" fill="url(#paint31_radial_256_853)"/>
<path d="M40.8707 40.8074C40.4151 42.2072 38.9504 42.9089 37.5506 42.4532C36.4966 42.0235 36.0409 40.8183 36.4966 39.4185C36.9522 38.0188 38.3873 37.2155 39.256 37.4983C40.6557 37.954 41.3264 39.4076 40.8707 40.8074Z" fill="url(#paint32_radial_256_853)"/>
<path d="M40.8707 40.8074C40.4151 42.2072 38.9504 42.9089 37.5506 42.4532C36.4966 42.0235 36.0409 40.8183 36.4966 39.4185C36.9522 38.0188 38.3873 37.2155 39.256 37.4983C40.6557 37.954 41.3264 39.4076 40.8707 40.8074Z" fill="url(#paint33_radial_256_853)"/>
<path d="M14.2606 40.8074C14.7163 42.2072 16.1809 42.9089 17.5807 42.4532C18.6348 42.0235 19.0905 40.8183 18.6348 39.4185C18.1791 38.0188 16.7441 37.2155 15.8754 37.4983C14.4756 37.954 13.8049 39.4076 14.2606 40.8074Z" fill="url(#paint34_radial_256_853)"/>
<path d="M14.2606 40.8074C14.7163 42.2072 16.1809 42.9089 17.5807 42.4532C18.6348 42.0235 19.0905 40.8183 18.6348 39.4185C18.1791 38.0188 16.7441 37.2155 15.8754 37.4983C14.4756 37.954 13.8049 39.4076 14.2606 40.8074Z" fill="url(#paint35_radial_256_853)"/>
<path d="M14.2606 40.8074C14.7163 42.2072 16.1809 42.9089 17.5807 42.4532C18.6348 42.0235 19.0905 40.8183 18.6348 39.4185C18.1791 38.0188 16.7441 37.2155 15.8754 37.4983C14.4756 37.954 13.8049 39.4076 14.2606 40.8074Z" fill="url(#paint36_radial_256_853)"/>
<path d="M8.45947 22.2144C8.45947 23.5344 7.38937 24.6045 6.06934 24.6045C4.7493 24.6045 3.6792 23.5344 3.6792 22.2144C3.6792 20.8943 4.7493 19.8242 6.06934 19.8242C7.38937 19.8242 8.45947 20.8943 8.45947 22.2144Z" fill="url(#paint37_radial_256_853)"/>
<path d="M8.45947 22.2144C8.45947 23.5344 7.38937 24.6045 6.06934 24.6045C4.7493 24.6045 3.6792 23.5344 3.6792 22.2144C3.6792 20.8943 4.7493 19.8242 6.06934 19.8242C7.38937 19.8242 8.45947 20.8943 8.45947 22.2144Z" fill="url(#paint38_radial_256_853)"/>
<path d="M8.45947 22.2144C8.45947 23.5344 7.38937 24.6045 6.06934 24.6045C4.7493 24.6045 3.6792 23.5344 3.6792 22.2144C3.6792 20.8943 4.7493 19.8242 6.06934 19.8242C7.38937 19.8242 8.45947 20.8943 8.45947 22.2144Z" fill="url(#paint39_radial_256_853)"/>
<path d="M8.45947 22.2144C8.45947 23.5344 7.38937 24.6045 6.06934 24.6045C4.7493 24.6045 3.6792 23.5344 3.6792 22.2144C3.6792 20.8943 4.7493 19.8242 6.06934 19.8242C7.38937 19.8242 8.45947 20.8943 8.45947 22.2144Z" fill="url(#paint40_radial_256_853)"/>
<path d="M17.67 22.6525C18.3775 22.2374 18.8525 21.4689 18.8525 20.5894C18.8525 19.2693 17.7824 18.1992 16.4624 18.1992C15.1424 18.1992 14.0723 19.2693 14.0723 20.5894C14.0723 21.5039 14.5859 22.2985 15.3405 22.7004C15.4902 22.6409 15.7633 22.582 16.0596 22.6673C16.4279 22.7734 17.0328 22.9072 17.67 22.6525Z" fill="url(#paint41_radial_256_853)"/>
<path d="M17.67 22.6525C18.3775 22.2374 18.8525 21.4689 18.8525 20.5894C18.8525 19.2693 17.7824 18.1992 16.4624 18.1992C15.1424 18.1992 14.0723 19.2693 14.0723 20.5894C14.0723 21.5039 14.5859 22.2985 15.3405 22.7004C15.4902 22.6409 15.7633 22.582 16.0596 22.6673C16.4279 22.7734 17.0328 22.9072 17.67 22.6525Z" fill="url(#paint42_radial_256_853)"/>
<path d="M17.67 22.6525C18.3775 22.2374 18.8525 21.4689 18.8525 20.5894C18.8525 19.2693 17.7824 18.1992 16.4624 18.1992C15.1424 18.1992 14.0723 19.2693 14.0723 20.5894C14.0723 21.5039 14.5859 22.2985 15.3405 22.7004C15.4902 22.6409 15.7633 22.582 16.0596 22.6673C16.4279 22.7734 17.0328 22.9072 17.67 22.6525Z" fill="url(#paint43_radial_256_853)"/>
<path d="M17.67 22.6525C18.3775 22.2374 18.8525 21.4689 18.8525 20.5894C18.8525 19.2693 17.7824 18.1992 16.4624 18.1992C15.1424 18.1992 14.0723 19.2693 14.0723 20.5894C14.0723 21.5039 14.5859 22.2985 15.3405 22.7004C15.4902 22.6409 15.7633 22.582 16.0596 22.6673C16.4279 22.7734 17.0328 22.9072 17.67 22.6525Z" fill="url(#paint44_radial_256_853)"/>
<path d="M37.33 22.6525C36.6225 22.2374 36.1475 21.4689 36.1475 20.5894C36.1475 19.2693 37.2176 18.1992 38.5376 18.1992C39.8576 18.1992 40.9277 19.2693 40.9277 20.5894C40.9277 21.5039 40.4141 22.2985 39.6595 22.7004C39.5098 22.6409 39.2367 22.582 38.9404 22.6673C38.5721 22.7734 37.9672 22.9072 37.33 22.6525Z" fill="url(#paint45_radial_256_853)"/>
<path d="M37.33 22.6525C36.6225 22.2374 36.1475 21.4689 36.1475 20.5894C36.1475 19.2693 37.2176 18.1992 38.5376 18.1992C39.8576 18.1992 40.9277 19.2693 40.9277 20.5894C40.9277 21.5039 40.4141 22.2985 39.6595 22.7004C39.5098 22.6409 39.2367 22.582 38.9404 22.6673C38.5721 22.7734 37.9672 22.9072 37.33 22.6525Z" fill="url(#paint46_radial_256_853)"/>
<circle cx="27.5657" cy="40.0913" r="4.24172" fill="url(#paint47_radial_256_853)"/>
<circle cx="27.5657" cy="40.0913" r="4.24172" fill="url(#paint48_radial_256_853)"/>
<circle cx="27.4933" cy="14.8597" r="3.09509" fill="url(#paint49_radial_256_853)"/>
<circle cx="27.4933" cy="14.8597" r="3.09509" fill="url(#paint50_radial_256_853)"/>
<circle cx="27.4933" cy="14.8597" r="3.09509" fill="url(#paint51_radial_256_853)"/>
<circle cx="27.4933" cy="14.8597" r="3.09509" fill="url(#paint52_radial_256_853)"/>
<path d="M51.4282 22.2144C51.4282 23.5344 50.3581 24.6045 49.0381 24.6045C47.718 24.6045 46.6479 23.5344 46.6479 22.2144C46.6479 20.8943 47.718 19.8242 49.0381 19.8242C50.3581 19.8242 51.4282 20.8943 51.4282 22.2144Z" fill="url(#paint53_radial_256_853)"/>
<path d="M51.4282 22.2144C51.4282 23.5344 50.3581 24.6045 49.0381 24.6045C47.718 24.6045 46.6479 23.5344 46.6479 22.2144C46.6479 20.8943 47.718 19.8242 49.0381 19.8242C50.3581 19.8242 51.4282 20.8943 51.4282 22.2144Z" fill="url(#paint54_radial_256_853)"/>
<path d="M51.4282 22.2144C51.4282 23.5344 50.3581 24.6045 49.0381 24.6045C47.718 24.6045 46.6479 23.5344 46.6479 22.2144C46.6479 20.8943 47.718 19.8242 49.0381 19.8242C50.3581 19.8242 51.4282 20.8943 51.4282 22.2144Z" fill="url(#paint55_radial_256_853)"/>
<path d="M51.4282 22.2144C51.4282 23.5344 50.3581 24.6045 49.0381 24.6045C47.718 24.6045 46.6479 23.5344 46.6479 22.2144C46.6479 20.8943 47.718 19.8242 49.0381 19.8242C50.3581 19.8242 51.4282 20.8943 51.4282 22.2144Z" fill="url(#paint56_radial_256_853)"/>
<defs>
<radialGradient id="paint0_radial_256_853" cx="0" cy="0" r="1" gradientUnits="userSpaceOnUse" gradientTransform="translate(9.245 41.6743) rotate(-103.54) scale(3.01094 3.70682)">
<stop stop-color="#395DE0"/>
<stop offset="1" stop-color="#2C68A3"/>
</radialGradient>
<radialGradient id="paint1_radial_256_853" cx="0" cy="0" r="1" gradientUnits="userSpaceOnUse" gradientTransform="translate(47.4269 37.7806) rotate(108.743) scale(5.14013)">
<stop offset="0.248616" stop-color="#3DB3F3"/>
<stop offset="1" stop-color="#5B73F4"/>
</radialGradient>
<radialGradient id="paint2_radial_256_853" cx="0" cy="0" r="1" gradientUnits="userSpaceOnUse" gradientTransform="translate(48.2863 38.9354) rotate(161.162) scale(2.41191 1.5292)">
<stop offset="0.257996" stop-color="#5FBEFF"/>
<stop offset="1" stop-color="#5FBEFF" stop-opacity="0"/>
</radialGradient>
<radialGradient id="paint3_radial_256_853" cx="0" cy="0" r="1" gradientUnits="userSpaceOnUse" gradientTransform="translate(14.8779 25.0245) rotate(15.9454) scale(5.4743 13.6636)">
<stop stop-color="#FBC96E"/>
<stop offset="1" stop-color="#FAC567"/>
</radialGradient>
<radialGradient id="paint4_radial_256_853" cx="0" cy="0" r="1" gradientUnits="userSpaceOnUse" gradientTransform="translate(18.1006 26.2062) rotate(-156.753) scale(4.15045 12.4827)">
<stop offset="0.765376" stop-color="#D89F3A" stop-opacity="0"/>
<stop offset="0.91124" stop-color="#DAA139"/>
</radialGradient>
<radialGradient id="paint5_radial_256_853" cx="0" cy="0" r="1" gradientUnits="userSpaceOnUse" gradientTransform="translate(41.0352 28.3546) rotate(-125.455) scale(4.35191 4.4633)">
<stop offset="0.254227" stop-color="#BF812A"/>
<stop offset="1" stop-color="#CE9333"/>
</radialGradient>
<radialGradient id="paint6_radial_256_853" cx="0" cy="0" r="1" gradientUnits="userSpaceOnUse" gradientTransform="translate(37.6782 26.233) rotate(-23.0913) scale(3.76609 9.81126)">
<stop offset="0.734364" stop-color="#E9BB61" stop-opacity="0"/>
<stop offset="0.929116" stop-color="#E9BB61"/>
</radialGradient>
<radialGradient id="paint7_radial_256_853" cx="0" cy="0" r="1" gradientUnits="userSpaceOnUse" gradientTransform="translate(39.9072 27.3073) rotate(-142.922) scale(5.92436 9.99465)">
<stop offset="0.772711" stop-color="#C18739" stop-opacity="0"/>
<stop offset="0.948485" stop-color="#C18739"/>
</radialGradient>
<linearGradient id="paint8_linear_256_853" x1="39.8848" y1="37.0905" x2="9.5224" y2="44.1721" gradientUnits="userSpaceOnUse">
<stop stop-color="#FFBC5D"/>
<stop offset="0.303505" stop-color="#FCAD6A"/>
<stop offset="1" stop-color="#CB7547"/>
</linearGradient>
<radialGradient id="paint9_radial_256_853" cx="0" cy="0" r="1" gradientUnits="userSpaceOnUse" gradientTransform="translate(20.853 56.4764) rotate(-69.4212) scale(18.9107 36.8064)">
<stop stop-color="#F67B4E"/>
<stop offset="1" stop-color="#F67B4E" stop-opacity="0"/>
</radialGradient>
<linearGradient id="paint10_linear_256_853" x1="9.07715" y1="43.447" x2="13.75" y2="42.4802" gradientUnits="userSpaceOnUse">
<stop stop-color="#C2794C"/>
<stop offset="1" stop-color="#E07648" stop-opacity="0"/>
</linearGradient>
<linearGradient id="paint11_linear_256_853" x1="45.7617" y1="46.4548" x2="37.8125" y2="44.6287" gradientUnits="userSpaceOnUse">
<stop offset="0.116056" stop-color="#F1AF51"/>
<stop offset="1" stop-color="#FFBB5B" stop-opacity="0"/>
</linearGradient>
<radialGradient id="paint12_radial_256_853" cx="0" cy="0" r="1" gradientUnits="userSpaceOnUse" gradientTransform="translate(48.2324 23.0369) rotate(113.385) scale(4.33031 3.5895)">
<stop offset="0.377231" stop-color="#DD9049"/>
<stop offset="1" stop-color="#F8BF60" stop-opacity="0"/>
</radialGradient>
<radialGradient id="paint13_radial_256_853" cx="0" cy="0" r="1" gradientUnits="userSpaceOnUse" gradientTransform="translate(6.95557 23.2786) rotate(64.2171) scale(3.5193 1.92496)">
<stop offset="0.195602" stop-color="#D7783D"/>
<stop offset="1" stop-color="#D7783D" stop-opacity="0"/>
</radialGradient>
<radialGradient id="paint14_radial_256_853" cx="0" cy="0" r="1" gradientUnits="userSpaceOnUse" gradientTransform="translate(26.5054 40.8242) rotate(35.0738) scale(6.35261 5.69041)">
<stop offset="0.578091" stop-color="#EF7660"/>
<stop offset="0.853374" stop-color="#EF7660" stop-opacity="0"/>
</radialGradient>
<radialGradient id="paint15_radial_256_853" cx="0" cy="0" r="1" gradientUnits="userSpaceOnUse" gradientTransform="translate(38.2348 40.7165) rotate(112.087) scale(3.66048 3.27892)">
<stop offset="0.437694" stop-color="#EF7660" stop-opacity="0.63"/>
<stop offset="0.918503" stop-color="#EF7660" stop-opacity="0"/>
</radialGradient>
<radialGradient id="paint16_radial_256_853" cx="0" cy="0" r="1" gradientUnits="userSpaceOnUse" gradientTransform="translate(15.8826 39.7646) rotate(77.3807) scale(3.39665 3.04258)">
<stop offset="0.437694" stop-color="#EF7660" stop-opacity="0.63"/>
<stop offset="0.918503" stop-color="#EF7660" stop-opacity="0"/>
</radialGradient>
<linearGradient id="paint17_linear_256_853" x1="7.40209" y1="44.2872" x2="11.1268" y2="43.5112" gradientUnits="userSpaceOnUse">
<stop offset="0.128534" stop-color="#FFBB5B" stop-opacity="0.81"/>
<stop offset="0.909576" stop-color="#FFBB5B" stop-opacity="0"/>
</linearGradient>
<radialGradient id="paint18_radial_256_853" cx="0" cy="0" r="1" gradientUnits="userSpaceOnUse" gradientTransform="translate(10.3054 20.6817) rotate(134.27) scale(4.46831 15.652)">
<stop offset="0.605974" stop-color="#FFBB5B" stop-opacity="0.81"/>
<stop offset="0.77855" stop-color="#FFBB5B" stop-opacity="0"/>
</radialGradient>
<radialGradient id="paint19_radial_256_853" cx="0" cy="0" r="1" gradientUnits="userSpaceOnUse" gradientTransform="translate(20.6953 22.1394) rotate(28.0725) scale(2.78557 9.53945)">
<stop offset="0.480277" stop-color="#D6974B"/>
<stop offset="0.631665" stop-color="#D6974B"/>
<stop offset="0.868706" stop-color="#D6974B" stop-opacity="0"/>
</radialGradient>
<radialGradient id="paint20_radial_256_853" cx="0" cy="0" r="1" gradientUnits="userSpaceOnUse" gradientTransform="translate(22.6479 19.4452) rotate(38.6099) scale(2.93566 9.5139)">
<stop offset="0.600879" stop-color="#D6974B" stop-opacity="0.81"/>
<stop offset="0.838463" stop-color="#D6974B" stop-opacity="0"/>
</radialGradient>
<linearGradient id="paint21_linear_256_853" x1="38.4042" y1="29.4834" x2="35.6247" y2="31.5314" gradientUnits="userSpaceOnUse">
<stop offset="0.013715" stop-color="#E7B050" stop-opacity="0"/>
<stop offset="0.132242" stop-color="#E7B050"/>
<stop offset="0.271719" stop-color="#F9DB41" stop-opacity="0.46"/>
<stop offset="0.358426" stop-color="#FFF5BE" stop-opacity="0.39"/>
<stop offset="0.519292" stop-color="#FFBB5B" stop-opacity="0"/>
</linearGradient>
<radialGradient id="paint22_radial_256_853" cx="0" cy="0" r="1" gradientUnits="userSpaceOnUse" gradientTransform="translate(27.5 16.9004) rotate(72.2118) scale(2.19499 4.80674)">
<stop offset="0.382465" stop-color="#D48C33"/>
<stop offset="1" stop-color="#FEB16A" stop-opacity="0"/>
</radialGradient>
<linearGradient id="paint23_linear_256_853" x1="39.8565" y1="42.2252" x2="10.3879" y2="38.9927" gradientUnits="userSpaceOnUse">
<stop stop-color="#FFBC5D"/>
<stop offset="0.0785587" stop-color="#FFBC5E"/>
<stop offset="0.151317" stop-color="#FEB763"/>
<stop offset="0.279293" stop-color="#FCAD6A" stop-opacity="0"/>
<stop offset="1" stop-color="#CB7547" stop-opacity="0"/>
</linearGradient>
<linearGradient id="paint24_linear_256_853" x1="48.2217" y1="43.582" x2="43.8572" y2="42.4763" gradientUnits="userSpaceOnUse">
<stop offset="0.582693" stop-color="#EFB25B"/>
<stop offset="1" stop-color="#FFBE5F" stop-opacity="0"/>
</linearGradient>
<linearGradient id="paint25_linear_256_853" x1="29.9707" y1="51.3425" x2="29.9707" y2="49.3015" gradientUnits="userSpaceOnUse">
<stop offset="0.184212" stop-color="#FF6F8C"/>
<stop offset="1" stop-color="#FF7A6A" stop-opacity="0"/>
</linearGradient>
<radialGradient id="paint26_radial_256_853" cx="0" cy="0" r="1" gradientUnits="userSpaceOnUse" gradientTransform="translate(44.2855 22.0607) rotate(53.7147) scale(3.47726 11.4591)">
<stop offset="0.395019" stop-color="#E8A655"/>
<stop offset="0.961653" stop-color="#FAEA59" stop-opacity="0"/>
</radialGradient>
<radialGradient id="paint27_radial_256_853" cx="0" cy="0" r="1" gradientUnits="userSpaceOnUse" gradientTransform="translate(38.7933 26.9795) rotate(68.5523) scale(2.38015 3.44164)">
<stop offset="0.501105" stop-color="#E8A655"/>
<stop offset="0.961653" stop-color="#FAEA59" stop-opacity="0"/>
</radialGradient>
<radialGradient id="paint28_radial_256_853" cx="0" cy="0" r="1" gradientUnits="userSpaceOnUse" gradientTransform="translate(43.8044 22.1626) rotate(47.1071) scale(3.44327 11.3471)">
<stop offset="0.618024" stop-color="#D6974B" stop-opacity="0.81"/>
<stop offset="0.830772" stop-color="#D6974B" stop-opacity="0"/>
<stop offset="1" stop-color="#FFBC5D" stop-opacity="0"/>
</radialGradient>
<radialGradient id="paint29_radial_256_853" cx="0" cy="0" r="1" gradientUnits="userSpaceOnUse" gradientTransform="translate(38.161 26.5885) rotate(96.0959) scale(2.99974 3.17052)">
<stop offset="0.515657" stop-color="#D6974B" stop-opacity="0.81"/>
<stop offset="0.814866" stop-color="#D6974B" stop-opacity="0"/>
<stop offset="1" stop-color="#FFBC5D" stop-opacity="0"/>
</radialGradient>
<radialGradient id="paint30_radial_256_853" cx="0" cy="0" r="1" gradientUnits="userSpaceOnUse" gradientTransform="translate(28.2129 18.0772) rotate(108.787) scale(0.340627 0.752996)">
<stop offset="0.260946" stop-color="#FEBE71" stop-opacity="0.54"/>
<stop offset="1" stop-color="#FDBF73" stop-opacity="0"/>
</radialGradient>
<radialGradient id="paint31_radial_256_853" cx="0" cy="0" r="1" gradientUnits="userSpaceOnUse" gradientTransform="translate(37.8662 41.3521) rotate(-51.582) scale(3.97606 2.56557)">
<stop stop-color="#FF196C"/>
<stop offset="1" stop-color="#FF1F4A"/>
</radialGradient>
<radialGradient id="paint32_radial_256_853" cx="0" cy="0" r="1" gradientUnits="userSpaceOnUse" gradientTransform="translate(40.6054 39.2574) rotate(149.744) scale(2.9847 1.89055)">
<stop offset="0.222789" stop-color="#FF5873"/>
<stop offset="1" stop-color="#FF5873" stop-opacity="0"/>
</radialGradient>
<radialGradient id="paint33_radial_256_853" cx="0" cy="0" r="1" gradientUnits="userSpaceOnUse" gradientTransform="translate(38.2811 42.8987) rotate(-97.6961) scale(4.04896 2.56466)">
<stop offset="0.302724" stop-color="#FD2E4C"/>
<stop offset="1" stop-color="#FD2E4C" stop-opacity="0"/>
</radialGradient>
<radialGradient id="paint34_radial_256_853" cx="0" cy="0" r="1" gradientUnits="userSpaceOnUse" gradientTransform="translate(16.8654 41.4595) rotate(-104.281) scale(3.0483 2.91865)">
<stop stop-color="#F6196C"/>
<stop offset="1" stop-color="#E42047"/>
</radialGradient>
<radialGradient id="paint35_radial_256_853" cx="0" cy="0" r="1" gradientUnits="userSpaceOnUse" gradientTransform="translate(18.1276 39.6065) rotate(155.726) scale(1.50247 1.31603)">
<stop stop-color="#FE536F"/>
<stop offset="1" stop-color="#FE536F" stop-opacity="0"/>
</radialGradient>
<radialGradient id="paint36_radial_256_853" cx="0" cy="0" r="1" gradientUnits="userSpaceOnUse" gradientTransform="translate(16.8503 42.8987) rotate(-82.3039) scale(4.04896 2.56466)">
<stop offset="0.302724" stop-color="#FD2E4C"/>
<stop offset="1" stop-color="#FD2E4C" stop-opacity="0"/>
</radialGradient>
<radialGradient id="paint37_radial_256_853" cx="0" cy="0" r="1" gradientUnits="userSpaceOnUse" gradientTransform="translate(8.00293 20.5813) rotate(135.198) scale(5.10962 5.31587)">
<stop offset="0.172433" stop-color="#E7C04E"/>
<stop offset="1" stop-color="#D9972A"/>
</radialGradient>
<radialGradient id="paint38_radial_256_853" cx="0" cy="0" r="1" gradientUnits="userSpaceOnUse" gradientTransform="translate(5.53223 24.9167) rotate(-71.3305) scale(2.85242 3.08983)">
<stop offset="0.0645976" stop-color="#DF8089"/>
<stop offset="1" stop-color="#DF8089" stop-opacity="0"/>
</radialGradient>
<radialGradient id="paint39_radial_256_853" cx="0" cy="0" r="1" gradientUnits="userSpaceOnUse" gradientTransform="translate(8.19092 20.693) rotate(141.017) scale(2.41838 1.24975)">
<stop stop-color="#FFDE71"/>
<stop offset="1" stop-color="#FFDE71" stop-opacity="0"/>
</radialGradient>
<radialGradient id="paint40_radial_256_853" cx="0" cy="0" r="1" gradientUnits="userSpaceOnUse" gradientTransform="translate(6.90186 22.3676) rotate(180) scale(3.22266 3.34936)">
<stop offset="0.487603" stop-color="#E1AD3D" stop-opacity="0"/>
<stop offset="1" stop-color="#B9894B"/>
</radialGradient>
<radialGradient id="paint41_radial_256_853" cx="0" cy="0" r="1" gradientUnits="userSpaceOnUse" gradientTransform="translate(18.396 18.9277) rotate(136.302) scale(5.01457 5.21172)">
<stop offset="0.172433" stop-color="#E7C04E"/>
<stop offset="1" stop-color="#D9972A"/>
</radialGradient>
<radialGradient id="paint42_radial_256_853" cx="0" cy="0" r="1" gradientUnits="userSpaceOnUse" gradientTransform="translate(18.584 19.0351) rotate(142.093) scale(2.3826 1.22054)">
<stop stop-color="#FFDE71"/>
<stop offset="1" stop-color="#FFDE71" stop-opacity="0"/>
</radialGradient>
<radialGradient id="paint43_radial_256_853" cx="0" cy="0" r="1" gradientUnits="userSpaceOnUse" gradientTransform="translate(16.4624 23.0903) rotate(-76.7989) scale(2.23434 2.97998)">
<stop stop-color="#E4A122"/>
<stop offset="1" stop-color="#E4A122" stop-opacity="0"/>
</radialGradient>
<radialGradient id="paint44_radial_256_853" cx="0" cy="0" r="1" gradientUnits="userSpaceOnUse" gradientTransform="translate(17.2949 20.6464) rotate(180) scale(3.22266)">
<stop offset="0.487603" stop-color="#E1AD3D" stop-opacity="0"/>
<stop offset="1" stop-color="#B9894B"/>
</radialGradient>
<radialGradient id="paint45_radial_256_853" cx="0" cy="0" r="1" gradientUnits="userSpaceOnUse" gradientTransform="translate(40.3369 19.7065) rotate(136.32) scale(4.12186 4.28391)">
<stop offset="0.172433" stop-color="#F0C950"/>
<stop offset="1" stop-color="#C8861F"/>
</radialGradient>
<radialGradient id="paint46_radial_256_853" cx="0" cy="0" r="1" gradientUnits="userSpaceOnUse" gradientTransform="translate(40.686 19.2499) rotate(147.14) scale(2.3019 1.1792)">
<stop offset="0.183948" stop-color="#FFDE71"/>
<stop offset="1" stop-color="#FFDE71" stop-opacity="0"/>
</radialGradient>
<radialGradient id="paint47_radial_256_853" cx="0" cy="0" r="1" gradientUnits="userSpaceOnUse" gradientTransform="translate(29.4337 38.774) rotate(138.155) scale(4.8307)">
<stop stop-color="#5FBFFF"/>
<stop offset="1" stop-color="#3E94FF"/>
</radialGradient>
<radialGradient id="paint48_radial_256_853" cx="0" cy="0" r="1" gradientUnits="userSpaceOnUse" gradientTransform="translate(29.5122 38.486) rotate(135.725) scale(7.18238 9.67852)">
<stop stop-color="#5FBFFF" stop-opacity="0"/>
<stop offset="0.568087" stop-color="#4E67FF" stop-opacity="0.85"/>
<stop offset="1" stop-color="#2E49EF"/>
</radialGradient>
<radialGradient id="paint49_radial_256_853" cx="0" cy="0" r="1" gradientUnits="userSpaceOnUse" gradientTransform="translate(29.9707 13.1544) rotate(125.606) scale(5.90427 5.01286)">
<stop offset="0.376296" stop-color="#F3D154"/>
<stop offset="1" stop-color="#CC9848"/>
</radialGradient>
<radialGradient id="paint50_radial_256_853" cx="0" cy="0" r="1" gradientUnits="userSpaceOnUse" gradientTransform="translate(26.9092 17.9548) rotate(-79.3128) scale(3.14973 3.74414)">
<stop stop-color="#E78F5E"/>
<stop offset="1" stop-color="#E78F5E" stop-opacity="0"/>
</radialGradient>
<radialGradient id="paint51_radial_256_853" cx="0" cy="0" r="1" gradientUnits="userSpaceOnUse" gradientTransform="translate(28.7891 15.8937) rotate(-146.725) scale(6.16741 7.37651)">
<stop offset="0.557117" stop-color="#E9C251" stop-opacity="0"/>
<stop offset="1" stop-color="#B49858"/>
</radialGradient>
<radialGradient id="paint52_radial_256_853" cx="0" cy="0" r="1" gradientUnits="userSpaceOnUse" gradientTransform="translate(31.0449 13.4767) rotate(156.06) scale(3.40845 2.62295)">
<stop stop-color="#FFED77"/>
<stop offset="1" stop-color="#FFED77" stop-opacity="0"/>
</radialGradient>
<radialGradient id="paint53_radial_256_853" cx="0" cy="0" r="1" gradientUnits="userSpaceOnUse" gradientTransform="translate(50.9717 20.5813) rotate(135.198) scale(5.10962 5.31587)">
<stop offset="0.172433" stop-color="#F8CB54"/>
<stop offset="1" stop-color="#EAA34B"/>
</radialGradient>
<radialGradient id="paint54_radial_256_853" cx="0" cy="0" r="1" gradientUnits="userSpaceOnUse" gradientTransform="translate(48.501 24.9167) rotate(-71.3305) scale(2.85242 3.85561)">
<stop offset="0.159577" stop-color="#F1907C"/>
<stop offset="1" stop-color="#F1907C" stop-opacity="0"/>
</radialGradient>
<radialGradient id="paint55_radial_256_853" cx="0" cy="0" r="1" gradientUnits="userSpaceOnUse" gradientTransform="translate(51.1597 20.693) rotate(141.017) scale(2.41838 1.24975)">
<stop stop-color="#FFDE71"/>
<stop offset="1" stop-color="#FFDE71" stop-opacity="0"/>
</radialGradient>
<radialGradient id="paint56_radial_256_853" cx="0" cy="0" r="1" gradientUnits="userSpaceOnUse" gradientTransform="translate(49.8706 22.3676) rotate(180) scale(3.22266 3.34936)">
<stop offset="0.487603" stop-color="#E0A444" stop-opacity="0"/>
<stop offset="1" stop-color="#C6924D"/>
</radialGradient>
</defs>
</svg>
