<svg width="30" height="30" viewBox="0 0 30 30" fill="none" xmlns="http://www.w3.org/2000/svg">
<path d="M7.7375 27.5753C6.4875 27.5753 5.275 27.0878 4.3125 26.1503C2.75 24.6253 2.375 22.3753 3.35 20.4253L5.375 16.3753C5.8 15.5253 5.8 14.5003 5.375 13.6378L3.35 9.5753C2.375 7.6253 2.75 5.3753 4.3125 3.8503C5.875 2.3253 8.125 1.9878 10.0625 3.0128L24.55 10.6378C26.175 11.4878 27.1875 13.1628 27.1875 15.0003C27.1875 16.8378 26.175 18.5128 24.55 19.3628L10.0625 26.9878C9.3125 27.3878 8.525 27.5753 7.7375 27.5753ZM7.75 4.3003C6.8875 4.3003 6.1375 4.7003 5.625 5.2003C4.85 5.9503 4.3 7.2878 5.025 8.7503L7.05 12.8003C7.7375 14.1878 7.7375 15.8253 7.05 17.2128L5.025 21.2628C4.2875 22.7253 4.85 24.0628 5.625 24.8128C6.4 25.5628 7.7375 26.1003 9.1875 25.3378L23.675 17.7128C24.7 17.1753 25.3125 16.1628 25.3125 15.0128C25.3125 13.8628 24.7 12.8503 23.675 12.3128L9.1875 4.6628C8.6875 4.4003 8.2 4.3003 7.75 4.3003Z" fill="white"/>
</svg>
