<svg viewBox="0 0 162 166" fill="none" xmlns="http://www.w3.org/2000/svg">
<path d="M69.6239 13.1206C59.3969 15.0994 51.5208 17.7841 44.1087 25.2164C40.0173 29.3191 34.5893 34.51 33.289 40.422C31.4036 48.994 28.9252 57.7552 27.004 66.4899C26.7865 67.4791 26.8594 67.9861 25.6897 68.0083C23.0752 68.0581 20.7462 69.0202 18.2679 69.7153C14.5057 70.7705 13.7357 73.7331 13.0912 77.0936C12.6319 79.4887 13.7658 81.4312 15.3954 83.0537C16.6763 84.3291 17.9379 86.9079 19.4237 87.8612C22.476 89.8198 27.9051 90.0545 31.3892 90.7074C34.3352 91.2595 37.2694 91.4799 40.2069 92.126C45.126 93.208 50.0452 94.2899 54.9643 95.3719C67.1776 98.0581 79.2212 101.259 91.4355 103.945C97.902 105.367 104.358 106.863 110.839 108.213C114.506 108.977 119.071 110.403 122.832 109.962C126.504 109.531 129.675 107.863 133.211 107.067C139.825 105.579 147.818 104.007 146.028 95.4566C145.61 93.4629 146.189 90.2382 144.537 88.7256C143.207 87.5088 141.862 85.7991 140.843 84.2063C140.09 83.0278 138.748 82.0301 138.087 80.996C137.535 80.1315 138.211 76.8413 138.278 75.9522C138.493 73.0639 138.177 71.0238 137.81 68.1902C137.295 64.2261 137.439 60.1574 135.788 56.3488C134.626 53.6669 132.997 50.3729 132.689 47.4566C132.522 45.8768 131.709 42.2259 130.763 41.0283C128.553 38.2296 128.726 33.66 125.693 31.4881C124.171 30.3987 122.888 28.8447 121.381 27.6906C117.2 24.4875 112.149 22.8889 107.527 20.4768C104.279 18.7817 102.287 17.1073 98.5701 16.2091C94.758 15.2878 88.4178 15.2814 85.0721 13.087C84.3729 12.6285 84.1911 11.9129 83.3491 11.7277C79.659 10.9161 74.3454 12.6026 71.3701 10.1959" stroke="white" stroke-width="13.6539" stroke-linecap="round"/>
<path d="M84.9791 41.3329C84.0788 40.2185 80.8935 41.8026 79.8684 42.3125C78.0054 43.2393 75.7082 44.5639 74.5564 46.3226C73.1691 48.4411 72.089 50.2753 71.5425 52.7599C71.1417 54.5823 70.2853 56.3518 70.125 58.1929C70.072 58.8023 70.0521 59.2381 70.3621 59.7824C71.1641 61.1908 71.6225 62.7863 72.235 64.2805C72.8477 65.7749 73.8857 67.331 74.7764 68.6828C75.4366 69.6849 76.019 70.3189 77.2128 70.665C79.6712 71.3778 82.4296 72.1481 84.9973 72.4278C87.2976 72.6783 90.0764 71.9376 92.2235 71.165C94.1583 70.4687 96.0077 69.3014 97.478 67.83C100.022 65.2841 100.659 62.6881 100.591 59.149C100.53 56.0016 100.229 52.8119 99.2754 49.8176C98.429 47.1598 96.3802 45.116 94.615 43.0477C93.6768 41.9484 92.9004 41.8596 91.3329 41.9212C90.1312 41.9685 88.9385 42.2037 87.7576 41.944" stroke="white" stroke-width="5.43356" stroke-linecap="round"/>
<path d="M87.5113 43.892C86.9954 43.9659 86.7461 46.5433 86.6586 46.941C86.3431 48.3753 86.0277 49.8095 85.7122 51.2438C84.9403 54.7534 83.9946 58.2253 83.2214 61.7406C82.8197 63.5672 82.4179 65.3937 82.0162 67.2203C81.9056 67.7229 81.8942 69.0903 81.3166 68.7454" stroke="white" stroke-width="5.43356" stroke-linecap="round"/>
<path d="M73.2273 55.859C73.5176 55.9575 73.5994 56.2751 73.8478 56.4405C74.8527 57.1095 76.7666 56.6682 77.8845 56.7114C80.7541 56.8222 83.7047 57.1057 86.5191 57.6901C89.0075 58.2068 91.4846 58.7823 93.9669 59.3282C95.1332 59.5848 96.3822 59.4954 97.4971 59.7406" stroke="white" stroke-width="5.43356" stroke-linecap="round"/>
<path d="M34.8421 94.8959C35.9751 89.7448 32.3335 105.153 31.4921 110.36C30.6809 115.379 30.2008 121.992 33.3136 126.398C35.7686 129.873 38.3537 133.213 40.9217 136.607C41.5356 137.418 42.1579 138.221 42.8302 138.985C44.8375 141.266 47.6104 142.808 50.1542 144.435C52.4138 145.88 54.7616 147.456 57.3633 148.196C59.7574 148.876 62.2631 149.332 64.7181 149.724C65.8158 149.899 67.2627 149.927 68.2836 150.444C69.0598 150.837 70.0429 150.796 70.7742 151.222C71.6303 151.721 71.69 152.294 72.7888 152.535C74.0577 152.815 75.2745 152.931 76.5717 152.907C77.3968 152.892 78.3083 153.242 79.1072 153.132C84.9312 152.326 90.6995 151.299 96.0941 148.627C99.0472 147.164 101.904 144.894 104.529 142.919C107.34 140.804 109.88 138.428 111.633 135.345C113.448 132.153 114.445 128.842 115.231 125.271C116.118 121.235 117.006 117.199 117.894 113.163" stroke="white" stroke-width="13.6539" stroke-linecap="round"/>
</svg>
