<svg width="63" height="62" viewBox="0 0 63 62" fill="none" xmlns="http://www.w3.org/2000/svg">
<path d="M31.4022 58.8899C29.6375 58.8899 27.9751 57.9948 26.7986 56.4347L22.9624 51.3197C22.8856 51.2174 22.5787 51.0895 22.4509 51.0639H21.1721C10.5073 51.0639 3.90894 48.1739 3.90894 33.8007V21.0132C3.90894 9.70899 9.86793 3.75 21.1721 3.75H41.6322C52.9364 3.75 58.8954 9.70899 58.8954 21.0132V33.8007C58.8954 45.1049 52.9364 51.0639 41.6322 51.0639H40.3534C40.1488 51.0639 39.9698 51.1662 39.8419 51.3197L36.0057 56.4347C34.8292 57.9948 33.1668 58.8899 31.4022 58.8899ZM21.1721 7.58626C12.0162 7.58626 7.7452 11.8573 7.7452 21.0132V33.8007C7.7452 45.3607 11.7093 47.2276 21.1721 47.2276H22.4509C23.7552 47.2276 25.2386 47.9693 26.0314 49.0179L29.8676 54.1329C30.7628 55.3094 32.0415 55.3094 32.9367 54.1329L36.7729 49.0179C37.6169 47.8926 38.9468 47.2276 40.3534 47.2276H41.6322C50.7881 47.2276 55.0591 42.9566 55.0591 33.8007V21.0132C55.0591 11.8573 50.7881 7.58626 41.6322 7.58626H21.1721Z" fill="white"/>
<path d="M31.4022 31.2429C29.97 31.2429 28.8447 30.0921 28.8447 28.6854C28.8447 27.2788 29.9956 26.1279 31.4022 26.1279C32.8089 26.1279 33.9597 27.2788 33.9597 28.6854C33.9597 30.0921 32.8344 31.2429 31.4022 31.2429Z" fill="white"/>
<path d="M41.632 31.2429C40.1998 31.2429 39.0745 30.0921 39.0745 28.6854C39.0745 27.2788 40.2253 26.1279 41.632 26.1279C43.0386 26.1279 44.1895 27.2788 44.1895 28.6854C44.1895 30.0921 43.0642 31.2429 41.632 31.2429Z" fill="white"/>
<path d="M21.172 31.2429C19.7398 31.2429 18.6145 30.0921 18.6145 28.6854C18.6145 27.2788 19.7654 26.1279 21.172 26.1279C22.5786 26.1279 23.7295 27.2788 23.7295 28.6854C23.7295 30.0921 22.6042 31.2429 21.172 31.2429Z" fill="white"/>
</svg>
