<svg width="43" height="43" viewBox="0 0 43 43" fill="none" xmlns="http://www.w3.org/2000/svg">
    <path d="M8.90625 23.2923C8.90625 30.2335 14.5589 35.8861 21.5 35.8861C28.4411 35.8861 34.0938 30.2335 34.0938 23.2923V14.334C34.0938 7.39284 28.4411 1.74023 21.5 1.74023C14.5589 1.74023 8.90625 7.39284 8.90625 14.334V23.2923ZM12.5938 14.334C12.5938 9.41491 16.5976 5.42773 21.5 5.42773C26.4024 5.42773 30.4062 9.41491 30.4062 14.334V23.2923C30.4062 28.2114 26.4024 32.1986 21.5 32.1986C16.5976 32.1986 12.5938 28.2114 12.5938 23.2923V14.334Z"
          fill="#A9A9A9" stroke="#A9A9A9"/>
    <path d="M3.53125 23.2923C3.53125 33.2076 11.5847 41.2611 21.5 41.2611C31.4153 41.2611 39.4688 33.2076 39.4688 23.2923V19.709C39.4688 18.6983 38.6357 17.8652 37.625 17.8652C36.6143 17.8652 35.7812 18.6983 35.7812 19.709V23.2923C35.7812 31.1683 29.3759 37.5736 21.5 37.5736C13.6241 37.5736 7.21875 31.1683 7.21875 23.2923V19.709C7.21875 18.6983 6.38573 17.8652 5.375 17.8652C4.36427 17.8652 3.53125 18.6983 3.53125 19.709V23.2923Z"
          fill="#A9A9A9" stroke="#A9A9A9"/>
    <path d="M25.5408 15.1443L25.5408 15.1444L25.5522 15.1482C25.7758 15.2228 25.9926 15.2456 26.1761 15.2456C26.9225 15.2456 27.6444 14.8087 27.9191 14.0357C28.2615 13.0805 27.7725 12.0227 26.8116 11.6773C23.2263 10.3836 19.2901 10.3836 15.7047 11.6772C14.7434 12.0225 14.2542 13.081 14.5972 14.0366C14.9405 14.9929 15.9966 15.4905 16.9409 15.1438C19.7155 14.1446 22.7663 14.1448 25.5408 15.1443Z"
          fill="#A9A9A9" stroke="#A9A9A9"/>
    <path d="M18.4581 20.549L18.4593 20.5486C20.2897 20.0525 22.2229 20.0523 24.0535 20.5478C24.2172 20.5943 24.3876 20.6198 24.5456 20.6198C25.3565 20.6198 26.0928 20.099 26.3343 19.2538L26.3343 19.2538L26.3356 19.249C26.6079 18.2591 26.0124 17.2544 25.0365 16.986L25.0365 16.986L25.0346 16.9855C22.5661 16.3173 19.9676 16.3173 17.4991 16.9855L17.4991 16.9855L17.4972 16.986C16.5214 17.2544 15.9259 18.2591 16.1981 19.249C16.4661 20.2236 17.4508 20.8192 18.4581 20.549Z"
          fill="#A9A9A9" stroke="#A9A9A9"/>
</svg>
