<svg width="32" height="32" viewBox="0 0 32 32" fill="none" xmlns="http://www.w3.org/2000/svg">
<path d="M16.6352 7.58594L21.1451 10.1203L23.7063 14.657L9.36953 28.9938L4.50768 26.4233L2.29846 21.9227L16.6352 7.58594Z" fill="#C2EA7C"/>
<path d="M1.38947 28.0659L1.97162 29.3777L3.2266 29.9031L9.35701 28.9778L2.31472 21.9355L1.38947 28.0659Z" fill="#FFCE7C"/>
<path d="M1.06293 30.2281L1.38949 28.0645L3.22661 29.9016L1.06293 30.2281Z" fill="#402A32"/>
<path d="M22.2761 1.94516C23.0572 1.16411 24.3235 1.16411 25.1046 1.94516L29.3472 6.1878C30.1283 6.96885 30.1283 8.23518 29.3472 9.01623L25.8117 12.5518L21.2845 10.2877L18.7406 5.4807L22.2761 1.94516Z" fill="#536435"/>
<path d="M18.7406 5.48047L25.8117 12.5515L23.6903 14.6729L16.6193 7.60179L18.7406 5.48047Z" fill="#D3D3D3"/>
</svg>
