<svg viewBox="0 0 125 126" fill="none" xmlns="http://www.w3.org/2000/svg">
<path d="M54.2469 8.36238C47.6717 8.36238 40.5348 11.6554 34.6122 14.2035C29.3042 16.4872 25.1527 20.4851 21.7335 25.0765C16.3637 32.2873 13.1942 41.3692 10.6846 49.8838C8.21697 58.2561 7.84802 66.2126 8.04551 74.9022C8.18018 80.8278 9.2975 90.113 14.2033 94.2203C18.8461 98.1072 22.026 103.565 26.7302 107.451C32.8472 112.504 42.3518 114.958 50.0948 116.037C55.5095 116.791 61.0177 116.999 66.457 117.585C70.2187 117.99 73.9092 118.726 77.6819 118.218C81.5266 117.701 84.1624 116.283 87.4992 114.453C91.839 112.073 96.9148 109.634 100.483 106.184C105.281 101.546 109.011 98.1932 111.603 91.8979C112.744 89.1252 114.466 86.6828 115.649 83.9455C117.387 79.9261 116.951 75.3002 116.951 71.0316C116.951 56.4145 117.775 38.0364 107.099 26.3433C103.187 22.0587 99.1042 19.1777 93.5163 17.2297C89.6622 15.886 85.5947 14.5946 82.2211 12.233C81.2216 11.5334 79.9873 9.98707 78.9134 9.62914C70.9514 6.97513 61.3547 8.36238 52.9801 8.36238" stroke="white" stroke-width="14.1065" stroke-linecap="round"/>
<path d="M15.9937 33.8623C18.3855 35.3683 20.3145 37.0118 22.4922 38.8417C27.7338 43.2461 33.4306 47.052 39.519 50.1929C47.4978 54.3089 56.0463 57.1321 64.0571 61.1643C71.2468 64.7833 77.1053 69.3709 83.7213 73.7815C91.6752 79.0841 100.545 82.7676 108.66 87.7912" stroke="white" stroke-width="14.1065" stroke-linecap="round"/>
</svg>
