<svg viewBox="0 0 157 192" fill="none" xmlns="http://www.w3.org/2000/svg">
<path d="M50.8451 141.319C53.9025 141.143 56.2899 143.456 58.8034 144.785C61.2126 146.06 66.4039 147.715 67.9065 149.588C68.8965 150.822 73.2501 151.5 74.8579 152.222C80.6935 154.843 85.4627 154.682 92.1563 152.401C98.7952 150.14 109.639 141.653 113.673 136.102C117.68 130.589 121.827 124.61 123.853 118.213" stroke="white" stroke-width="14.9212" stroke-linecap="round"/>
<path d="M53.2707 143.061C52.7303 141.777 50.7233 141.703 49.6543 140.845C47.2266 138.897 46.7778 135.302 45.9837 132.479C44.1057 125.804 42.2278 119.129 40.3499 112.453C38.2036 104.824 35.1261 97.715 32.9684 90.0453C31.5277 84.9243 29.7166 79.8242 34.6091 75.8748C37.9542 73.1746 40.3196 69.0701 43.4671 66.0794C50.0487 59.8257 54.3057 54.4098 63.1874 51.9111C67.4135 50.7222 78.5687 46.444 82.2931 48.7512C86.0097 51.0535 90.9289 52.4297 95.0163 53.9719C100.964 56.2161 102.269 64.4298 103.786 69.8232C108.166 85.3929 112.546 100.963 116.926 116.532" stroke="white" stroke-width="14.9212" stroke-linecap="round"/>
<path d="M27.7078 52.1962C21.4338 48.1755 13.787 45.0936 9.95145 38.873" stroke="white" stroke-width="14.9212" stroke-linecap="round"/>
<path d="M55.4165 35.7821C53.911 30.4309 53.4454 24.9454 51.9204 19.5248" stroke="white" stroke-width="14.9212" stroke-linecap="round"/>
<path d="M81.5034 32.748C82.7112 25.5217 86.7954 20.1676 88.9912 13.4005" stroke="white" stroke-width="14.9212" stroke-linecap="round"/>
<path d="M50.9622 150.175C49.7562 145.888 46.9914 152.751 45.7132 154.286C44.5092 155.732 40.8995 158.194 40.4434 159.6C38.1042 166.809 39.9432 171.373 46.3179 174.948C67.2903 186.712 92.7749 175.049 113.99 169.081C121.96 166.839 131.657 164.384 139.054 160.713C147.817 156.363 150.214 143.792 148.039 135.197C146.59 129.473 139.277 126.386 134.055 124.644C129.087 122.987 123.78 120.208 118.768 119.247" stroke="white" stroke-width="14.9212" stroke-linecap="round"/>
</svg>
