<svg width="32" height="32" viewBox="0 0 32 32" fill="none" xmlns="http://www.w3.org/2000/svg">
<path d="M17.6719 27.4212C17.0381 29.7869 14.4609 30.3453 13.0313 29.532C11.7656 28.812 10.8099 27.6111 11.2813 25.9228C11.7526 24.2344 13.1636 20.2716 13.1636 20.2716L13.7613 19.6929C10.7647 18.1563 8.7114 15.0139 8.7114 11.3872C8.7114 10.4046 8.86211 9.45759 9.14146 8.56843L10.1317 2.07809C17.0932 2.0781 21.7026 2.0938 24.3906 4.37497C26.0862 5.81391 27.1445 8.59372 27.1445 11.9062C27.1445 14.9375 25.6024 17.3257 23.5781 18.8909C23.0312 19.3137 21.3778 20.0843 20.2031 21.6565C19.0284 23.2287 18.3586 24.8593 17.6719 27.4212Z" fill="url(#paint0_linear_20020_3088)"/>
<path d="M17.6719 27.4212C17.0381 29.7869 14.4609 30.3453 13.0313 29.532C11.7656 28.812 10.8099 27.6111 11.2813 25.9228C11.7526 24.2344 13.1636 20.2716 13.1636 20.2716L13.7613 19.6929C10.7647 18.1563 8.7114 15.0139 8.7114 11.3872C8.7114 10.4046 8.86211 9.45759 9.14146 8.56843L10.1317 2.07809C17.0932 2.0781 21.7026 2.0938 24.3906 4.37497C26.0862 5.81391 27.1445 8.59372 27.1445 11.9062C27.1445 14.9375 25.6024 17.3257 23.5781 18.8909C23.0312 19.3137 21.3778 20.0843 20.2031 21.6565C19.0284 23.2287 18.3586 24.8593 17.6719 27.4212Z" fill="url(#paint1_radial_20020_3088)"/>
<path d="M17.6719 27.4212C17.0381 29.7869 14.4609 30.3453 13.0313 29.532C11.7656 28.812 10.8099 27.6111 11.2813 25.9228C11.7526 24.2344 13.1636 20.2716 13.1636 20.2716L13.7613 19.6929C10.7647 18.1563 8.7114 15.0139 8.7114 11.3872C8.7114 10.4046 8.86211 9.45759 9.14146 8.56843L10.1317 2.07809C17.0932 2.0781 21.7026 2.0938 24.3906 4.37497C26.0862 5.81391 27.1445 8.59372 27.1445 11.9062C27.1445 14.9375 25.6024 17.3257 23.5781 18.8909C23.0312 19.3137 21.3778 20.0843 20.2031 21.6565C19.0284 23.2287 18.3586 24.8593 17.6719 27.4212Z" fill="url(#paint2_radial_20020_3088)"/>
<path d="M17.6719 27.4212C17.0381 29.7869 14.4609 30.3453 13.0313 29.532C11.7656 28.812 10.8099 27.6111 11.2813 25.9228C11.7526 24.2344 13.1636 20.2716 13.1636 20.2716L13.7613 19.6929C10.7647 18.1563 8.7114 15.0139 8.7114 11.3872C8.7114 10.4046 8.86211 9.45759 9.14146 8.56843L10.1317 2.07809C17.0932 2.0781 21.7026 2.0938 24.3906 4.37497C26.0862 5.81391 27.1445 8.59372 27.1445 11.9062C27.1445 14.9375 25.6024 17.3257 23.5781 18.8909C23.0312 19.3137 21.3778 20.0843 20.2031 21.6565C19.0284 23.2287 18.3586 24.8593 17.6719 27.4212Z" fill="url(#paint3_radial_20020_3088)"/>
<path d="M17.6719 27.4212C17.0381 29.7869 14.4609 30.3453 13.0313 29.532C11.7656 28.812 10.8099 27.6111 11.2813 25.9228C11.7526 24.2344 13.1636 20.2716 13.1636 20.2716L13.7613 19.6929C10.7647 18.1563 8.7114 15.0139 8.7114 11.3872C8.7114 10.4046 8.86211 9.45759 9.14146 8.56843L10.1317 2.07809C17.0932 2.0781 21.7026 2.0938 24.3906 4.37497C26.0862 5.81391 27.1445 8.59372 27.1445 11.9062C27.1445 14.9375 25.6024 17.3257 23.5781 18.8909C23.0312 19.3137 21.3778 20.0843 20.2031 21.6565C19.0284 23.2287 18.3586 24.8593 17.6719 27.4212Z" fill="url(#paint4_radial_20020_3088)"/>
<path d="M17.6719 27.4212C17.0381 29.7869 14.4609 30.3453 13.0313 29.532C11.7656 28.812 10.8099 27.6111 11.2813 25.9228C11.7526 24.2344 13.1636 20.2716 13.1636 20.2716L13.7613 19.6929C10.7647 18.1563 8.7114 15.0139 8.7114 11.3872C8.7114 10.4046 8.86211 9.45759 9.14146 8.56843L10.1317 2.07809C17.0932 2.0781 21.7026 2.0938 24.3906 4.37497C26.0862 5.81391 27.1445 8.59372 27.1445 11.9062C27.1445 14.9375 25.6024 17.3257 23.5781 18.8909C23.0312 19.3137 21.3778 20.0843 20.2031 21.6565C19.0284 23.2287 18.3586 24.8593 17.6719 27.4212Z" fill="url(#paint5_radial_20020_3088)"/>
<path d="M17.6719 27.4212C17.0381 29.7869 14.4609 30.3453 13.0313 29.532C11.7656 28.812 10.8099 27.6111 11.2813 25.9228C11.7526 24.2344 13.1636 20.2716 13.1636 20.2716L13.7613 19.6929C10.7647 18.1563 8.7114 15.0139 8.7114 11.3872C8.7114 10.4046 8.86211 9.45759 9.14146 8.56843L10.1317 2.07809C17.0932 2.0781 21.7026 2.0938 24.3906 4.37497C26.0862 5.81391 27.1445 8.59372 27.1445 11.9062C27.1445 14.9375 25.6024 17.3257 23.5781 18.8909C23.0312 19.3137 21.3778 20.0843 20.2031 21.6565C19.0284 23.2287 18.3586 24.8593 17.6719 27.4212Z" fill="url(#paint6_radial_20020_3088)"/>
<path d="M17.6719 27.4212C17.0381 29.7869 14.4609 30.3453 13.0313 29.532C11.7656 28.812 10.8099 27.6111 11.2813 25.9228C11.7526 24.2344 13.1636 20.2716 13.1636 20.2716L13.7613 19.6929C10.7647 18.1563 8.7114 15.0139 8.7114 11.3872C8.7114 10.4046 8.86211 9.45759 9.14146 8.56843L10.1317 2.07809C17.0932 2.0781 21.7026 2.0938 24.3906 4.37497C26.0862 5.81391 27.1445 8.59372 27.1445 11.9062C27.1445 14.9375 25.6024 17.3257 23.5781 18.8909C23.0312 19.3137 21.3778 20.0843 20.2031 21.6565C19.0284 23.2287 18.3586 24.8593 17.6719 27.4212Z" fill="url(#paint7_radial_20020_3088)"/>
<path d="M17.6719 27.4212C17.0381 29.7869 14.4609 30.3453 13.0313 29.532C11.7656 28.812 10.8099 27.6111 11.2813 25.9228C11.7526 24.2344 13.1636 20.2716 13.1636 20.2716L13.7613 19.6929C10.7647 18.1563 8.7114 15.0139 8.7114 11.3872C8.7114 10.4046 8.86211 9.45759 9.14146 8.56843L10.1317 2.07809C17.0932 2.0781 21.7026 2.0938 24.3906 4.37497C26.0862 5.81391 27.1445 8.59372 27.1445 11.9062C27.1445 14.9375 25.6024 17.3257 23.5781 18.8909C23.0312 19.3137 21.3778 20.0843 20.2031 21.6565C19.0284 23.2287 18.3586 24.8593 17.6719 27.4212Z" fill="url(#paint8_radial_20020_3088)"/>
<path d="M17.6719 27.4212C17.0381 29.7869 14.4609 30.3453 13.0313 29.532C11.7656 28.812 10.8099 27.6111 11.2813 25.9228C11.7526 24.2344 13.1636 20.2716 13.1636 20.2716L13.7613 19.6929C10.7647 18.1563 8.7114 15.0139 8.7114 11.3872C8.7114 10.4046 8.86211 9.45759 9.14146 8.56843L10.1317 2.07809C17.0932 2.0781 21.7026 2.0938 24.3906 4.37497C26.0862 5.81391 27.1445 8.59372 27.1445 11.9062C27.1445 14.9375 25.6024 17.3257 23.5781 18.8909C23.0312 19.3137 21.3778 20.0843 20.2031 21.6565C19.0284 23.2287 18.3586 24.8593 17.6719 27.4212Z" fill="url(#paint9_radial_20020_3088)"/>
<path d="M17.6719 27.4212C17.0381 29.7869 14.4609 30.3453 13.0313 29.532C11.7656 28.812 10.8099 27.6111 11.2813 25.9228C11.7526 24.2344 13.1636 20.2716 13.1636 20.2716L13.7613 19.6929C10.7647 18.1563 8.7114 15.0139 8.7114 11.3872C8.7114 10.4046 8.86211 9.45759 9.14146 8.56843L10.1317 2.07809C17.0932 2.0781 21.7026 2.0938 24.3906 4.37497C26.0862 5.81391 27.1445 8.59372 27.1445 11.9062C27.1445 14.9375 25.6024 17.3257 23.5781 18.8909C23.0312 19.3137 21.3778 20.0843 20.2031 21.6565C19.0284 23.2287 18.3586 24.8593 17.6719 27.4212Z" fill="url(#paint10_radial_20020_3088)"/>
<path d="M17.6719 27.4212C17.0381 29.7869 14.4609 30.3453 13.0313 29.532C11.7656 28.812 10.8099 27.6111 11.2813 25.9228C11.7526 24.2344 13.1636 20.2716 13.1636 20.2716L13.7613 19.6929C10.7647 18.1563 8.7114 15.0139 8.7114 11.3872C8.7114 10.4046 8.86211 9.45759 9.14146 8.56843L10.1317 2.07809C17.0932 2.0781 21.7026 2.0938 24.3906 4.37497C26.0862 5.81391 27.1445 8.59372 27.1445 11.9062C27.1445 14.9375 25.6024 17.3257 23.5781 18.8909C23.0312 19.3137 21.3778 20.0843 20.2031 21.6565C19.0284 23.2287 18.3586 24.8593 17.6719 27.4212Z" fill="url(#paint11_radial_20020_3088)"/>
<path d="M9.12647 21.0117C7.52921 21.0117 6.23437 19.7169 6.23438 18.1196C6.23438 16.5224 7.52921 15.2275 9.12647 15.2275L12.4452 15.2275C14.0425 15.2275 15.3373 16.5224 15.3373 18.1196C15.3373 19.7169 14.0425 21.0117 12.4452 21.0117L9.12647 21.0117Z" fill="url(#paint12_linear_20020_3088)"/>
<path d="M9.12647 21.0117C7.52921 21.0117 6.23437 19.7169 6.23438 18.1196C6.23438 16.5224 7.52921 15.2275 9.12647 15.2275L12.4452 15.2275C14.0425 15.2275 15.3373 16.5224 15.3373 18.1196C15.3373 19.7169 14.0425 21.0117 12.4452 21.0117L9.12647 21.0117Z" fill="url(#paint13_radial_20020_3088)"/>
<path d="M9.12647 21.0117C7.52921 21.0117 6.23437 19.7169 6.23438 18.1196C6.23438 16.5224 7.52921 15.2275 9.12647 15.2275L12.4452 15.2275C14.0425 15.2275 15.3373 16.5224 15.3373 18.1196C15.3373 19.7169 14.0425 21.0117 12.4452 21.0117L9.12647 21.0117Z" fill="url(#paint14_radial_20020_3088)"/>
<path d="M9.12647 21.0117C7.52921 21.0117 6.23437 19.7169 6.23438 18.1196C6.23438 16.5224 7.52921 15.2275 9.12647 15.2275L12.4452 15.2275C14.0425 15.2275 15.3373 16.5224 15.3373 18.1196C15.3373 19.7169 14.0425 21.0117 12.4452 21.0117L9.12647 21.0117Z" fill="url(#paint15_radial_20020_3088)"/>
<path d="M9.12647 21.0117C7.52921 21.0117 6.23437 19.7169 6.23438 18.1196C6.23438 16.5224 7.52921 15.2275 9.12647 15.2275L12.4452 15.2275C14.0425 15.2275 15.3373 16.5224 15.3373 18.1196C15.3373 19.7169 14.0425 21.0117 12.4452 21.0117L9.12647 21.0117Z" fill="url(#paint16_radial_20020_3088)"/>
<path d="M9.12647 21.0117C7.52921 21.0117 6.23437 19.7169 6.23438 18.1196C6.23438 16.5224 7.52921 15.2275 9.12647 15.2275L12.4452 15.2275C14.0425 15.2275 15.3373 16.5224 15.3373 18.1196C15.3373 19.7169 14.0425 21.0117 12.4452 21.0117L9.12647 21.0117Z" fill="url(#paint17_radial_20020_3088)"/>
<path d="M9.86621 7.81055C8.28325 7.81055 7 6.62984 7 5.04688C7 3.35156 8.28325 2.07812 9.86621 2.07812L11.3682 2.07813C12.9511 2.07813 14.2344 3.36137 14.2344 4.94434C14.2344 6.5273 12.9511 7.81055 11.3682 7.81055H9.86621Z" fill="url(#paint18_linear_20020_3088)"/>
<path d="M9.86621 7.81055C8.28325 7.81055 7 6.62984 7 5.04688C7 3.35156 8.28325 2.07812 9.86621 2.07812L11.3682 2.07813C12.9511 2.07813 14.2344 3.36137 14.2344 4.94434C14.2344 6.5273 12.9511 7.81055 11.3682 7.81055H9.86621Z" fill="url(#paint19_radial_20020_3088)"/>
<path d="M9.86621 7.81055C8.28325 7.81055 7 6.62984 7 5.04688C7 3.35156 8.28325 2.07812 9.86621 2.07812L11.3682 2.07813C12.9511 2.07813 14.2344 3.36137 14.2344 4.94434C14.2344 6.5273 12.9511 7.81055 11.3682 7.81055H9.86621Z" fill="url(#paint20_radial_20020_3088)"/>
<path d="M9.86621 7.81055C8.28325 7.81055 7 6.62984 7 5.04688C7 3.35156 8.28325 2.07812 9.86621 2.07812L11.3682 2.07813C12.9511 2.07813 14.2344 3.36137 14.2344 4.94434C14.2344 6.5273 12.9511 7.81055 11.3682 7.81055H9.86621Z" fill="url(#paint21_radial_20020_3088)"/>
<path d="M8.46875 11.5234C6.85372 11.5234 5.76562 10.5046 5.76563 8.80469C5.76562 7.25 6.875 6.0625 8.32812 6.0625L12.2188 6.0625C13.826 6.0625 15.3073 7.33545 15.3073 8.94266C15.3073 10.6426 14.0422 11.5234 12.4272 11.5234L8.46875 11.5234Z" fill="url(#paint22_linear_20020_3088)"/>
<path d="M8.46875 11.5234C6.85372 11.5234 5.76562 10.5046 5.76563 8.80469C5.76562 7.25 6.875 6.0625 8.32812 6.0625L12.2188 6.0625C13.826 6.0625 15.3073 7.33545 15.3073 8.94266C15.3073 10.6426 14.0422 11.5234 12.4272 11.5234L8.46875 11.5234Z" fill="url(#paint23_radial_20020_3088)"/>
<path d="M8.46875 11.5234C6.85372 11.5234 5.76562 10.5046 5.76563 8.80469C5.76562 7.25 6.875 6.0625 8.32812 6.0625L12.2188 6.0625C13.826 6.0625 15.3073 7.33545 15.3073 8.94266C15.3073 10.6426 14.0422 11.5234 12.4272 11.5234L8.46875 11.5234Z" fill="url(#paint24_radial_20020_3088)"/>
<path d="M8.46875 11.5234C6.85372 11.5234 5.76562 10.5046 5.76563 8.80469C5.76562 7.25 6.875 6.0625 8.32812 6.0625L12.2188 6.0625C13.826 6.0625 15.3073 7.33545 15.3073 8.94266C15.3073 10.6426 14.0422 11.5234 12.4272 11.5234L8.46875 11.5234Z" fill="url(#paint25_radial_20020_3088)"/>
<path d="M8.46875 11.5234C6.85372 11.5234 5.76562 10.5046 5.76563 8.80469C5.76562 7.25 6.875 6.0625 8.32812 6.0625L12.2188 6.0625C13.826 6.0625 15.3073 7.33545 15.3073 8.94266C15.3073 10.6426 14.0422 11.5234 12.4272 11.5234L8.46875 11.5234Z" fill="url(#paint26_radial_20020_3088)"/>
<path d="M8.46875 11.5234C6.85372 11.5234 5.76562 10.5046 5.76563 8.80469C5.76562 7.25 6.875 6.0625 8.32812 6.0625L12.2188 6.0625C13.826 6.0625 15.3073 7.33545 15.3073 8.94266C15.3073 10.6426 14.0422 11.5234 12.4272 11.5234L8.46875 11.5234Z" fill="url(#paint27_radial_20020_3088)"/>
<path d="M8.03906 16.3286C6.48954 16.3286 5.28711 15.2302 5.28711 13.6807C5.28711 12.1312 6.44531 11.0161 7.5625 11.0161H13.7578C15.1328 11.0161 16.1719 12.1312 16.1719 13.6807C16.1719 15.2302 14.7527 16.3286 13.2031 16.3286L8.03906 16.3286Z" fill="url(#paint28_linear_20020_3088)"/>
<path d="M8.03906 16.3286C6.48954 16.3286 5.28711 15.2302 5.28711 13.6807C5.28711 12.1312 6.44531 11.0161 7.5625 11.0161H13.7578C15.1328 11.0161 16.1719 12.1312 16.1719 13.6807C16.1719 15.2302 14.7527 16.3286 13.2031 16.3286L8.03906 16.3286Z" fill="url(#paint29_radial_20020_3088)"/>
<path d="M8.03906 16.3286C6.48954 16.3286 5.28711 15.2302 5.28711 13.6807C5.28711 12.1312 6.44531 11.0161 7.5625 11.0161H13.7578C15.1328 11.0161 16.1719 12.1312 16.1719 13.6807C16.1719 15.2302 14.7527 16.3286 13.2031 16.3286L8.03906 16.3286Z" fill="url(#paint30_radial_20020_3088)"/>
<path d="M8.03906 16.3286C6.48954 16.3286 5.28711 15.2302 5.28711 13.6807C5.28711 12.1312 6.44531 11.0161 7.5625 11.0161H13.7578C15.1328 11.0161 16.1719 12.1312 16.1719 13.6807C16.1719 15.2302 14.7527 16.3286 13.2031 16.3286L8.03906 16.3286Z" fill="url(#paint31_radial_20020_3088)"/>
<defs>
<linearGradient id="paint0_linear_20020_3088" x1="26.1193" y1="8.03763" x2="11.5029" y2="29.8013" gradientUnits="userSpaceOnUse">
<stop stop-color="#FFD8B8"/>
<stop offset="1" stop-color="#EAB2A3"/>
</linearGradient>
<radialGradient id="paint1_radial_20020_3088" cx="0" cy="0" r="1" gradientUnits="userSpaceOnUse" gradientTransform="translate(27.1445 12.3752) rotate(-110.297) scale(21.8572 16.4231)">
<stop offset="0.523656" stop-color="#F7BEAB" stop-opacity="0"/>
<stop offset="1" stop-color="#C97E71"/>
</radialGradient>
<radialGradient id="paint2_radial_20020_3088" cx="0" cy="0" r="1" gradientUnits="userSpaceOnUse" gradientTransform="translate(24.375 6.68774) rotate(65.7185) scale(9.11922 6.04553)">
<stop stop-color="#FFE8CA"/>
<stop offset="1" stop-color="#FCC6B1" stop-opacity="0"/>
</radialGradient>
<radialGradient id="paint3_radial_20020_3088" cx="0" cy="0" r="1" gradientUnits="userSpaceOnUse" gradientTransform="translate(13.4375 14.1877) rotate(-92.7102) scale(10.5743 7.53934)">
<stop stop-color="#F0B2A0"/>
<stop offset="1" stop-color="#F0B2A0" stop-opacity="0"/>
</radialGradient>
<radialGradient id="paint4_radial_20020_3088" cx="0" cy="0" r="1" gradientUnits="userSpaceOnUse" gradientTransform="translate(12.6875 5.50024) rotate(-159.905) scale(2.72861 2.67113)">
<stop offset="0.445559" stop-color="#C98168"/>
<stop offset="1" stop-color="#F6C5AD" stop-opacity="0"/>
</radialGradient>
<radialGradient id="paint5_radial_20020_3088" cx="0" cy="0" r="1" gradientUnits="userSpaceOnUse" gradientTransform="translate(12.5 10.0627) rotate(-110.376) scale(4.66704 4.56873)">
<stop offset="0.564921" stop-color="#C98168"/>
<stop offset="0.898852" stop-color="#F8C8AF" stop-opacity="0"/>
</radialGradient>
<radialGradient id="paint6_radial_20020_3088" cx="0" cy="0" r="1" gradientUnits="userSpaceOnUse" gradientTransform="translate(13.9375 14.0627) rotate(-124.695) scale(3.95285 3.86958)">
<stop offset="0.333956" stop-color="#C98168"/>
<stop offset="1" stop-color="#F6C4AC" stop-opacity="0"/>
</radialGradient>
<radialGradient id="paint7_radial_20020_3088" cx="0" cy="0" r="1" gradientUnits="userSpaceOnUse" gradientTransform="translate(12.125 19.1252) rotate(-101.634) scale(4.33914 4.24774)">
<stop offset="0.619473" stop-color="#C98168"/>
<stop offset="0.91565" stop-color="#F2BCA7" stop-opacity="0"/>
</radialGradient>
<radialGradient id="paint8_radial_20020_3088" cx="0" cy="0" r="1" gradientUnits="userSpaceOnUse" gradientTransform="translate(16.375 26.3127) rotate(-66.413) scale(9.68407 4.00769)">
<stop offset="0.119262" stop-color="#FEC9BA"/>
<stop offset="1" stop-color="#FEC9BA" stop-opacity="0"/>
</radialGradient>
<radialGradient id="paint9_radial_20020_3088" cx="0" cy="0" r="1" gradientUnits="userSpaceOnUse" gradientTransform="translate(23.8125 20.8752) rotate(-42.3458) scale(6.68049 3.33301)">
<stop offset="0.441012" stop-color="#CA919F"/>
<stop offset="1" stop-color="#CA919F" stop-opacity="0"/>
</radialGradient>
<radialGradient id="paint10_radial_20020_3088" cx="0" cy="0" r="1" gradientUnits="userSpaceOnUse" gradientTransform="translate(19.1875 12.7502) rotate(-72.2893) scale(28.1465 24.1078)">
<stop offset="0.55902" stop-color="#BC809B" stop-opacity="0"/>
<stop offset="0.644968" stop-color="#BC809B"/>
</radialGradient>
<radialGradient id="paint11_radial_20020_3088" cx="0" cy="0" r="1" gradientUnits="userSpaceOnUse" gradientTransform="translate(10.875 25.0627) rotate(25.0169) scale(3.10368 7.38936)">
<stop offset="0.395377" stop-color="#E8AA93"/>
<stop offset="1" stop-color="#E4A58F" stop-opacity="0"/>
</radialGradient>
<linearGradient id="paint12_linear_20020_3088" x1="6.23438" y1="18.1292" x2="14.4117" y2="18.1292" gradientUnits="userSpaceOnUse">
<stop offset="0.108913" stop-color="#CF9482"/>
<stop offset="1" stop-color="#F4BFB1"/>
</linearGradient>
<radialGradient id="paint13_radial_20020_3088" cx="0" cy="0" r="1" gradientUnits="userSpaceOnUse" gradientTransform="translate(14.25 17.8135) rotate(-180) scale(5.5625 7.45491)">
<stop stop-color="#FFD2BE"/>
<stop offset="0.514019" stop-color="#E6B1A6"/>
<stop offset="1" stop-color="#E6B1A6" stop-opacity="0"/>
</radialGradient>
<radialGradient id="paint14_radial_20020_3088" cx="0" cy="0" r="1" gradientUnits="userSpaceOnUse" gradientTransform="translate(9.44501 21.4529) rotate(-90) scale(3.01438 15.512)">
<stop offset="0.205548" stop-color="#A95E51"/>
<stop offset="0.480361" stop-color="#C1807E"/>
<stop offset="1" stop-color="#DEA99D" stop-opacity="0"/>
</radialGradient>
<radialGradient id="paint15_radial_20020_3088" cx="0" cy="0" r="1" gradientUnits="userSpaceOnUse" gradientTransform="translate(13.6439 18.1292) rotate(178.589) scale(7.41175 8.4543)">
<stop offset="0.758205" stop-color="#C98E81" stop-opacity="0"/>
<stop offset="0.968124" stop-color="#C98E81"/>
</radialGradient>
<radialGradient id="paint16_radial_20020_3088" cx="0" cy="0" r="1" gradientUnits="userSpaceOnUse" gradientTransform="translate(10.125 15.876) rotate(90) scale(2.0625 6.70312)">
<stop offset="0.354167" stop-color="#91463B"/>
<stop offset="1" stop-color="#CE9388" stop-opacity="0"/>
</radialGradient>
<radialGradient id="paint17_radial_20020_3088" cx="0" cy="0" r="1" gradientUnits="userSpaceOnUse" gradientTransform="translate(10.125 15.876) rotate(90) scale(1.09375 6.09848)">
<stop stop-color="#A4584A"/>
<stop offset="1" stop-color="#C58577" stop-opacity="0"/>
</radialGradient>
<linearGradient id="paint18_linear_20020_3088" x1="7" y1="4.95381" x2="13.4988" y2="4.95381" gradientUnits="userSpaceOnUse">
<stop offset="0.240429" stop-color="#CD8A7D"/>
<stop offset="1" stop-color="#E0A99E"/>
</linearGradient>
<radialGradient id="paint19_radial_20020_3088" cx="0" cy="0" r="1" gradientUnits="userSpaceOnUse" gradientTransform="translate(13.375 4.01703) rotate(-180) scale(5.1875 4.65377)">
<stop stop-color="#F9CAB8"/>
<stop offset="0.590361" stop-color="#DFA89D"/>
<stop offset="1" stop-color="#DFA89D" stop-opacity="0"/>
</radialGradient>
<radialGradient id="paint20_radial_20020_3088" cx="0" cy="0" r="1" gradientUnits="userSpaceOnUse" gradientTransform="translate(9.55159 7.81055) rotate(-90) scale(3.45631 14.3599)">
<stop offset="0.361092" stop-color="#BB7B70"/>
<stop offset="0.813163" stop-color="#BB7B70" stop-opacity="0"/>
</radialGradient>
<radialGradient id="paint21_radial_20020_3088" cx="0" cy="0" r="1" gradientUnits="userSpaceOnUse" gradientTransform="translate(13.2187 6.65625) rotate(-144.986) scale(6.75354 6.39884)">
<stop offset="0.760442" stop-color="#DAA88D" stop-opacity="0"/>
<stop offset="0.977095" stop-color="#DAA88D"/>
</radialGradient>
<linearGradient id="paint22_linear_20020_3088" x1="5.76563" y1="8.802" x2="14.3372" y2="8.802" gradientUnits="userSpaceOnUse">
<stop stop-color="#DAA196"/>
<stop offset="1" stop-color="#E1AB9F"/>
</linearGradient>
<radialGradient id="paint23_radial_20020_3088" cx="0" cy="0" r="1" gradientUnits="userSpaceOnUse" gradientTransform="translate(13.5625 7.90958) rotate(-180) scale(5.3125 3.20449)">
<stop stop-color="#F9CAB8"/>
<stop offset="0.51139" stop-color="#E0A99E"/>
<stop offset="1" stop-color="#E0A99E" stop-opacity="0"/>
</radialGradient>
<radialGradient id="paint24_radial_20020_3088" cx="0" cy="0" r="1" gradientUnits="userSpaceOnUse" gradientTransform="translate(8.6875 11.9375) rotate(-83.1767) scale(3.73313 21.3287)">
<stop stop-color="#B57069"/>
<stop offset="0.29156" stop-color="#CA8B81"/>
<stop offset="0.908982" stop-color="#E0A99E" stop-opacity="0"/>
</radialGradient>
<radialGradient id="paint25_radial_20020_3088" cx="0" cy="0" r="1" gradientUnits="userSpaceOnUse" gradientTransform="translate(11.0625 10.9375) rotate(90) scale(2.1875 3.82215)">
<stop stop-color="#B8746D"/>
<stop offset="1" stop-color="#E0A99E" stop-opacity="0"/>
</radialGradient>
<radialGradient id="paint26_radial_20020_3088" cx="0" cy="0" r="1" gradientUnits="userSpaceOnUse" gradientTransform="translate(13.5323 8.802) rotate(178.729) scale(7.76859 7.98227)">
<stop offset="0.807914" stop-color="#D59B81" stop-opacity="0"/>
<stop offset="1" stop-color="#D59B81"/>
</radialGradient>
<radialGradient id="paint27_radial_20020_3088" cx="0" cy="0" r="1" gradientUnits="userSpaceOnUse" gradientTransform="translate(7.96875 12.625) rotate(90.6296) scale(2.84392 8.64784)">
<stop offset="0.502777" stop-color="#AB685D"/>
<stop offset="1" stop-color="#DFA89C" stop-opacity="0"/>
</radialGradient>
<linearGradient id="paint28_linear_20020_3088" x1="5.28711" y1="13.6811" x2="15.0652" y2="13.6811" gradientUnits="userSpaceOnUse">
<stop stop-color="#DFA99B"/>
<stop offset="1" stop-color="#E4AEA2"/>
</linearGradient>
<radialGradient id="paint29_radial_20020_3088" cx="0" cy="0" r="1" gradientUnits="userSpaceOnUse" gradientTransform="translate(14.6875 12.813) rotate(-180) scale(6.25 6.43382)">
<stop stop-color="#FDCFBC"/>
<stop offset="0.57" stop-color="#DFA89D"/>
<stop offset="1" stop-color="#DFA89D" stop-opacity="0"/>
</radialGradient>
<radialGradient id="paint30_radial_20020_3088" cx="0" cy="0" r="1" gradientUnits="userSpaceOnUse" gradientTransform="translate(9.12621 16.7338) rotate(-90) scale(3.60827 24.1742)">
<stop offset="0.168577" stop-color="#B56F68"/>
<stop offset="0.272505" stop-color="#B56F68"/>
<stop offset="1" stop-color="#ECB9AB" stop-opacity="0"/>
</radialGradient>
<radialGradient id="paint31_radial_20020_3088" cx="0" cy="0" r="1" gradientUnits="userSpaceOnUse" gradientTransform="translate(14.147 13.6811) rotate(178.916) scale(8.86146 7.76582)">
<stop offset="0.807914" stop-color="#CC9182" stop-opacity="0"/>
<stop offset="1" stop-color="#CC9182"/>
</radialGradient>
</defs>
</svg>
